<svg xmlns="http://www.w3.org/2000/svg" version="1.1" xmlns:xlink="http://www.w3.org/1999/xlink" xmlns:svgjs="http://svgjs.dev/svgjs" width="2000" height="1247" viewBox="0 0 2000 1247"><g transform="matrix(1,0,0,1,-1.2121212121212466,0.504858299595071)"><svg viewBox="0 0 396 247" data-background-color="#c6e4ec" preserveAspectRatio="xMidYMid meet" height="1247" width="2000" xmlns="http://www.w3.org/2000/svg" xmlns:xlink="http://www.w3.org/1999/xlink"><g id="tight-bounds" transform="matrix(1,0,0,1,0.2400000000000091,-0.09999999999999432)"><svg viewBox="0 0 395.52 247.2" height="247.2" width="395.52"><g><svg></svg></g><g><svg viewBox="0 0 395.52 247.2" height="247.2" width="395.52"><mask id="ad027bcc-eb97-490c-a9ce-ab0fa582f026"><rect width="640" height="400" fill="white"></rect><g transform="matrix(1,0,0,1,39.55199999999999,79.45157148502042)"><svg viewBox="0 0 316.416 88.29685702995914" height="88.29685702995914" width="316.416"><g><svg viewBox="0 0 316.416 88.29685702995914" height="88.29685702995914" width="316.416"><g><svg viewBox="0 0 316.416 88.29685702995914" height="88.29685702995914" width="316.416"><g id="SvgjsG4566"><svg viewBox="0 0 316.416 88.29685702995914" height="88.29685702995914" width="316.416" id="SvgjsSvg4565"><g><svg viewBox="0 0 316.416 48.90824678323985" height="48.90824678323985" width="316.416"><g transform="matrix(1,0,0,1,0,0)"><svg width="316.416" viewBox="0.95 -35.8 304.07 47.849999999999994" height="48.90824678323985" data-palette-color="#5660ec"><path d="M16.55 0.8L16.55 0.8Q12.35 0.8 9.05-0.88 5.75-2.55 3.85-5.9 1.95-9.25 1.95-14.15L1.95-14.15Q1.95-18.65 3.45-22.43 4.95-26.2 7.68-28.98 10.4-31.75 14.13-33.27 17.85-34.8 22.25-34.8L22.25-34.8Q26.55-34.8 28.8-33.85 31.05-32.9 31.05-30.35L31.05-30.35Q31.05-29 30.5-28 29.95-27 29.3-27L29.3-27Q28.85-27 28.03-27.48 27.2-27.95 26.5-28.35L26.5-28.35Q25.3-29.1 23.88-29.88 22.45-30.65 20.4-30.65L20.4-30.65Q17.4-30.65 15.08-28.73 12.75-26.8 11.43-23.3 10.1-19.8 10.1-15.05L10.1-15.05Q10.1-11.1 11.1-8.5 12.1-5.9 13.85-4.65 15.6-3.4 17.8-3.4L17.8-3.4Q19.7-3.4 21.23-4.2 22.75-5 23.93-6.05 25.1-7.1 26.05-7.88 27-8.65 27.85-8.65L27.85-8.65Q28.5-8.65 28.9-8.25 29.3-7.85 29.3-7L29.3-7Q29.3-4.9 27.58-3.1 25.85-1.3 22.95-0.25 20.05 0.8 16.55 0.8ZM41.05 0.75L41.05 0.75Q36.4 0.75 33.87-1.7 31.35-4.15 31.35-8.9L31.35-8.9Q31.35-12.25 32.4-15.1 33.45-17.95 35.35-20.08 37.25-22.2 39.72-23.38 42.2-24.55 45-24.55L45-24.55Q49.6-24.55 52.1-22.08 54.6-19.6 54.6-14.8L54.6-14.8Q54.6-11.5 53.55-8.68 52.5-5.85 50.65-3.73 48.8-1.6 46.35-0.43 43.9 0.75 41.05 0.75ZM42-3L42-3Q43.55-3 44.77-4.42 46-5.85 46.72-8.4 47.45-10.95 47.45-14.25L47.45-14.25Q47.45-17.4 46.5-19.1 45.55-20.8 43.9-20.8L43.9-20.8Q42.4-20.8 41.15-19.38 39.9-17.95 39.2-15.43 38.5-12.9 38.5-9.55L38.5-9.55Q38.5-6.35 39.45-4.67 40.4-3 42-3ZM78.84 0.5L74.4 0.5Q73.65 0.5 73.3-0.15 72.95-0.8 72.82-1.6 72.7-2.4 72.7-2.8L72.7-2.8Q72.7-3.5 72.8-4.48 72.9-5.45 73.02-6.53 73.15-7.6 73.3-8.5L73.3-8.5 74.15-13.7Q74.3-14.7 74.5-15.7 74.7-16.7 74.7-17.5L74.7-17.5Q74.7-18.1 74.45-18.4 74.2-18.7 73.8-18.7L73.8-18.7Q73.15-18.7 71.77-17.48 70.4-16.25 68.87-13.98 67.34-11.7 66.09-8.55 64.84-5.4 64.45-1.5L64.45-1.5 62.7-9.1Q64.2-13.45 66.09-16.4 68-19.35 70-21.13 72-22.9 73.84-23.7 75.7-24.5 77.15-24.5L77.15-24.5Q78.84-24.5 79.87-23.88 80.9-23.25 81.34-22.23 81.8-21.2 81.8-20.05L81.8-20.05Q81.8-18.75 81.62-17.6 81.45-16.45 81.25-15.15L81.25-15.15 78.84 0.5ZM58.85 0.7L58.85 0.7Q58.2 0.7 57.82 0.48 57.45 0.25 57.4-0.7 57.35-1.65 57.6-3.75L57.6-3.75 59.95-24.55 64.4-24.55Q65.55-24.55 66.12-23.45 66.7-22.35 66.7-20.95L66.7-20.95Q66.7-20.3 66.2-18.93 65.7-17.55 65.09-16.03 64.5-14.5 64.09-13.35L64.09-13.35 62.8-9.25 65.25-9.55 64.45-1.5Q64.4-0.9 63.65-0.45 62.9 0 61.87 0.25 60.85 0.5 60 0.6 59.15 0.7 58.85 0.7ZM93.54 0.8L93.54 0.8Q91.29 0.8 89.84-0.75 88.39-2.3 88.09-5.35L88.09-5.35 86.99-16.55Q86.89-17.7 86.67-18.88 86.44-20.05 86.09-20.75L86.09-20.75Q85.74-21.45 85.49-21.73 85.24-22 85.24-22.4L85.24-22.4Q85.24-22.8 85.92-23.18 86.59-23.55 87.57-23.88 88.54-24.2 89.57-24.38 90.59-24.55 91.29-24.55L91.29-24.55Q92.34-24.55 92.89-23.6 93.44-22.65 93.74-19.85L93.74-19.85 95.09-7.15Q95.24-5.7 95.52-5.05 95.79-4.4 96.39-4.4L96.39-4.4Q96.74-4.4 97.52-5.18 98.29-5.95 99.19-7.63 100.09-9.3 100.72-11.98 101.34-14.65 101.34-18.5L101.34-18.5Q101.34-19.7 101.02-20.35 100.69-21 100.69-21.5L100.69-21.5Q100.69-22 101.34-22.55 101.99-23.1 102.97-23.55 103.94-24 104.89-24.28 105.84-24.55 106.44-24.55L106.44-24.55Q107.14-24.55 107.84-24.18 108.54-23.8 108.54-22.2L108.54-22.2Q108.54-19.85 107.82-16.85 107.09-13.85 105.77-10.75 104.44-7.65 102.59-5.03 100.74-2.4 98.47-0.8 96.19 0.8 93.54 0.8ZM118.49 0.8L118.49 0.8Q114.64 0.8 112.29-1.63 109.94-4.05 109.94-8.3L109.94-8.3Q109.94-11.85 111.02-14.8 112.09-17.75 113.99-19.95 115.89-22.15 118.42-23.35 120.94-24.55 123.84-24.55L123.84-24.55Q127.09-24.55 129.17-23.08 131.24-21.6 131.24-18.85L131.24-18.85Q131.24-16.15 129.29-14.1 127.34-12.05 123.79-10.58 120.24-9.1 115.49-8.1L115.49-8.1 114.84-11.45Q117.34-11.75 119.47-12.58 121.59-13.4 122.92-14.78 124.24-16.15 124.34-18L124.34-18Q124.39-19.25 123.92-20.03 123.44-20.8 122.39-20.8L122.39-20.8Q120.99-20.8 119.77-19.33 118.54-17.85 117.79-15.45 117.04-13.05 117.04-10.3L117.04-10.3Q117.04-7.4 117.82-5.98 118.59-4.55 120.69-4.55L120.69-4.55Q122.84-4.55 124.69-5.33 126.54-6.1 127.79-6.9L127.79-6.9Q128.19-7.15 128.56-7.35 128.94-7.55 129.19-7.55L129.19-7.55Q129.49-7.55 129.69-7.3 129.89-7.05 129.89-6.7L129.89-6.7Q129.89-5.8 129.12-4.55 128.34-3.3 126.87-2.08 125.39-0.85 123.29-0.03 121.19 0.8 118.49 0.8ZM140.44-1.45L140.44-1.45 138.79-8.75Q140.64-13.55 142.54-17.07 144.44-20.6 146.44-22.55 148.44-24.5 150.49-24.5L150.49-24.5Q151.74-24.5 152.49-23.8 153.24-23.1 153.24-21.55L153.24-21.55Q153.24-20.45 152.96-19.38 152.69-18.3 152.19-17.6 151.69-16.9 150.99-16.9L150.99-16.9Q150.34-16.9 149.51-17.32 148.69-17.75 147.54-17.75L147.54-17.75Q146.79-17.75 145.74-16.45 144.69-15.15 143.61-12.9 142.54-10.65 141.69-7.7 140.84-4.75 140.44-1.45ZM134.89 0.7L134.89 0.7Q134.24 0.7 133.86 0.48 133.49 0.25 133.44-0.7 133.39-1.65 133.64-3.75L133.64-3.75 135.99-24.55 140.44-24.55Q141.59-24.55 142.16-23.45 142.74-22.35 142.74-20.95L142.74-20.95Q142.74-20.3 142.26-18.93 141.79-17.55 141.21-16.03 140.64-14.5 140.24-13.35L140.24-13.35 139.04-9.25 141.29-9.55 140.44-1.45Q140.39-0.85 139.64-0.43 138.89 0 137.89 0.25 136.89 0.5 136.04 0.6 135.19 0.7 134.89 0.7ZM160.73 0.8L160.73 0.8Q156.69 0.8 154.38-0.4 152.09-1.6 152.09-3.9L152.09-3.9Q152.09-5.3 152.48-6.18 152.88-7.05 153.44-7.05L153.44-7.05Q153.84-7.05 154.21-6.85 154.59-6.65 155.34-6.1L155.34-6.1Q156.23-5.45 157.46-4.8 158.69-4.15 159.96-3.73 161.23-3.3 162.23-3.3L162.23-3.3Q163.48-3.3 164.23-3.88 164.98-4.45 164.98-5.55L164.98-5.55Q164.98-6.35 164.51-6.93 164.03-7.5 162.84-8.25L162.84-8.25 159.28-10.4Q157.19-11.7 155.94-13.25 154.69-14.8 154.69-17.05L154.69-17.05Q154.69-20.4 157.19-22.45 159.69-24.5 164.69-24.5L164.69-24.5Q167.88-24.5 169.56-23.88 171.24-23.25 171.24-21.65L171.24-21.65Q171.24-20.2 170.76-19.1 170.28-18 169.48-18L169.48-18Q169.23-18 168.88-18.15 168.53-18.3 168.23-18.45L168.23-18.45Q167.73-18.7 166.84-19.2 165.94-19.7 164.94-20.13 163.94-20.55 162.98-20.55L162.98-20.55Q161.94-20.55 161.38-19.98 160.84-19.4 160.84-18.6L160.84-18.6Q160.84-17.8 161.31-17.2 161.78-16.6 163.19-16L163.19-16 166.53-14.6Q169.03-13.55 170.31-12 171.59-10.45 171.59-8.05L171.59-8.05Q171.59-5.15 170.09-3.18 168.59-1.2 166.11-0.2 163.63 0.8 160.73 0.8ZM179.83 0.8L179.83 0.8Q177.03 0.8 175.58-1.5 174.13-3.8 174.13-7.85L174.13-7.85Q174.13-11.5 175.28-14.55 176.43-17.6 178.38-19.83 180.33-22.05 182.86-23.28 185.38-24.5 188.13-24.5L188.13-24.5Q190.28-24.5 192.06-23.93 193.83-23.35 195.08-22.75L195.08-22.75 193.63-16.55Q192.33-17.45 190.71-18.35 189.08-19.25 187.61-19.83 186.13-20.4 185.18-20.4L185.18-20.4Q184.03-20.4 183.06-18.88 182.08-17.35 181.51-14.93 180.93-12.5 180.93-9.75L180.93-9.75Q180.93-7.35 181.26-5.85 181.58-4.35 182.33-4.35L182.33-4.35Q182.88-4.35 184.28-5.73 185.68-7.1 187.76-10.45 189.83-13.8 192.28-19.7L192.28-19.7 194.03-15.05Q191.33-9.05 188.88-5.58 186.43-2.1 184.21-0.65 181.98 0.8 179.83 0.8ZM195.93 0.5L192.33 0.5Q190.93 0.5 190.48-0.3 190.03-1.1 190.03-2.2L190.03-2.2Q190.03-3.05 190.26-4.38 190.48-5.7 190.83-7.25 191.18-8.8 191.58-10.2L191.58-10.2 192.68-13.95 191.08-15.25 192.28-22.8Q193.88-23.05 195.28-23.45 196.68-23.85 197.71-24.15 198.73-24.45 199.23-24.45L199.23-24.45Q200.03-24.45 200.03-23.6L200.03-23.6Q200.03-23.2 199.41-21.4 198.78-19.6 198.08-16.85 197.38-14.1 197.03-10.8L197.03-10.8 195.93 0.5ZM211.58 0.65L211.58 0.65Q207.13 0.65 204.31-0.65 201.48-1.95 201.48-4.4L201.48-4.4Q201.48-6.35 201.88-7.23 202.28-8.1 203.03-8.1L203.03-8.1Q203.53-8.1 204.41-7.45 205.28-6.8 206.5-5.98 207.73-5.15 209.23-4.5 210.73-3.85 212.53-3.85L212.53-3.85Q215.18-3.85 216.41-5.05 217.63-6.25 217.63-7.95L217.63-7.95Q217.63-9.65 216.86-10.8 216.08-11.95 214.18-13.2L214.18-13.2 210.53-15.6Q208.83-16.7 207.36-17.98 205.88-19.25 204.93-20.95 203.98-22.65 203.98-25L203.98-25Q203.98-28.1 205.66-30.3 207.33-32.5 210.28-33.65 213.23-34.8 217.03-34.8L217.03-34.8Q220.23-34.8 222-34.4 223.78-34 224.48-33.25 225.18-32.5 225.18-31.35L225.18-31.35Q225.18-29.95 224.75-28.9 224.33-27.85 223.68-27.85L223.68-27.85Q223.18-27.85 222.56-28.25 221.93-28.65 220.93-29.05L220.93-29.05Q219.98-29.5 218.66-29.88 217.33-30.25 215.78-30.25L215.78-30.25Q213.83-30.25 212.66-29.15 211.48-28.05 211.48-26.25L211.48-26.25Q211.48-24.85 212.28-23.8 213.08-22.75 214.83-21.85L214.83-21.85 218.13-20.15Q220.33-19.05 222.03-17.88 223.73-16.7 224.71-14.95 225.68-13.2 225.68-10.4L225.68-10.4Q225.68-5.1 221.88-2.23 218.08 0.65 211.58 0.65ZM235.93 11.05L235.93 11.05Q233.13 11.05 231.38 10.23 229.63 9.4 228.8 7.88 227.98 6.35 227.98 4.15L227.98 4.15Q227.98 3.35 228.3 2.93 228.63 2.5 228.93 2.5L228.93 2.5Q229.28 2.5 229.6 2.8 229.93 3.1 230.53 3.5L230.53 3.5Q231.48 4.1 232.73 4.78 233.98 5.45 235.4 5.95 236.83 6.45 238.13 6.45L238.13 6.45Q239.08 6.45 240.03 5.78 240.98 5.1 241.95 3.23 242.93 1.35 243.88-2.25L243.88-2.25 246.78-13.65 247.03-13.65Q245.28-8.75 242.95-5.58 240.63-2.4 238.1-0.9 235.58 0.6 233.13 0.6L233.13 0.6Q231.03 0.6 230.03-0.55 229.03-1.7 229.03-3.75L229.03-3.75Q229.03-4.75 229.15-5.95 229.28-7.15 229.58-9.7L229.58-9.7 231.43-24.55 235.58-24.55Q236.43-24.55 237.1-23.58 237.78-22.6 237.78-21.2L237.78-21.2Q237.78-20.4 237.7-19.48 237.63-18.55 237.48-17.4 237.33-16.25 237.08-14.75L237.08-14.75 236.43-10.45Q236.23-9.05 236.13-8.13 236.03-7.2 236.03-6.5L236.03-6.5Q236.03-5.85 236.18-5.38 236.33-4.9 236.88-4.9L236.88-4.9Q237.58-4.9 238.58-5.95 239.58-7 240.68-8.65 241.78-10.3 242.75-12.2 243.73-14.1 244.33-15.9 244.93-17.7 244.93-18.95L244.93-18.95Q244.93-19.8 244.85-20.78 244.78-21.75 244.78-22.35L244.78-22.35Q244.78-22.95 245.78-23.45 246.78-23.95 248.15-24.25 249.53-24.55 250.63-24.55L250.63-24.55Q251.53-24.55 252.03-23.68 252.53-22.8 252.38-20.95L252.38-20.95Q252.38-20.1 252.18-18.68 251.98-17.25 251.83-15.8L251.83-15.8 250.28-1.5Q249.88 1.9 248.48 4.28 247.08 6.65 245.03 8.15 242.98 9.65 240.6 10.35 238.23 11.05 235.93 11.05ZM277.82 0.5L273.38 0.5Q272.63 0.5 272.27-0.15 271.93-0.8 271.8-1.6 271.68-2.4 271.68-2.8L271.68-2.8Q271.68-3.5 271.77-4.48 271.88-5.45 272-6.53 272.13-7.6 272.27-8.5L272.27-8.5 273.13-13.7Q273.27-14.7 273.48-15.7 273.68-16.7 273.68-17.5L273.68-17.5Q273.68-18.1 273.43-18.4 273.18-18.7 272.77-18.7L272.77-18.7Q272.13-18.7 270.75-17.48 269.38-16.25 267.85-13.98 266.32-11.7 265.07-8.55 263.82-5.4 263.43-1.5L263.43-1.5 261.68-9.1Q263.18-13.45 265.07-16.4 266.98-19.35 268.98-21.13 270.98-22.9 272.82-23.7 274.68-24.5 276.13-24.5L276.13-24.5Q277.82-24.5 278.85-23.88 279.88-23.25 280.32-22.23 280.77-21.2 280.77-20.05L280.77-20.05Q280.77-18.75 280.6-17.6 280.43-16.45 280.23-15.15L280.23-15.15 277.82 0.5ZM257.82 0.7L257.82 0.7Q257.18 0.7 256.8 0.48 256.43 0.25 256.38-0.7 256.32-1.65 256.57-3.75L256.57-3.75 258.93-24.55 263.38-24.55Q264.52-24.55 265.1-23.45 265.68-22.35 265.68-20.95L265.68-20.95Q265.68-20.3 265.18-18.93 264.68-17.55 264.07-16.03 263.48-14.5 263.07-13.35L263.07-13.35 261.77-9.25 264.23-9.55 263.43-1.5Q263.38-0.9 262.63-0.45 261.88 0 260.85 0.25 259.82 0.5 258.98 0.6 258.13 0.7 257.82 0.7ZM292.52 0.8L292.52 0.8Q288.47 0.8 286.17-1.65 283.87-4.1 283.87-8.7L283.87-8.7Q283.87-13.2 285.75-16.8 287.62-20.4 290.85-22.48 294.07-24.55 298.17-24.55L298.17-24.55Q300.72-24.55 302.37-23.83 304.02-23.1 304.02-21.35L304.02-21.35Q304.02-20.6 303.67-19.65 303.32-18.7 302.82-18.05 302.32-17.4 301.72-17.4L301.72-17.4Q301.42-17.4 301.07-17.63 300.72-17.85 300.42-18.1L300.42-18.1Q299.92-18.55 299.15-19.15 298.37-19.75 297.42-20.2 296.47-20.65 295.52-20.65L295.52-20.65Q294.17-20.65 293.15-19.23 292.12-17.8 291.55-15.45 290.97-13.1 290.97-10.3L290.97-10.3Q290.97-7.25 291.87-5.83 292.77-4.4 294.62-4.4L294.62-4.4Q296.32-4.4 297.62-4.93 298.92-5.45 300.07-6.2L300.07-6.2Q300.52-6.5 300.92-6.7 301.32-6.9 301.62-6.9L301.62-6.9Q301.92-6.9 302.1-6.7 302.27-6.5 302.27-6.15L302.27-6.15Q302.27-5.25 301.57-4.05 300.87-2.85 299.55-1.75 298.22-0.65 296.47 0.08 294.72 0.8 292.52 0.8Z" opacity="1" transform="matrix(1,0,0,1,0,0)" fill="black" class="wordmark-text-0" id="SvgjsPath4564" stroke-width="1" stroke="black" stroke-linejoin="round"></path></svg></g></svg></g><g transform="matrix(1,0,0,1,0.5,60.20786259582184)"><svg viewBox="0 0 315.416 28.08899443413729" height="28.08899443413729" width="315.416"><g transform="matrix(1,0,0,1,0,0)"><svg width="315.416" viewBox="0.44999999999999996 -36.8 593.9 53.8" height="28.08899443413729" data-palette-color="#4752f7"><path d="M2.55-8.7L2.55-8.7 2.9-22.75Q2.9-26 2.75-28.1L2.75-28.1Q2.5-31.85 1.9-32.8L1.9-32.8 1.7-33.1Q1.45-33.3 1.45-33.6L1.45-33.6Q1.45-34.55 3.95-35.13 6.45-35.7 8.15-35.7 9.85-35.7 9.85-34.75L9.85-34.75 9.8-34.2Q9.1-29.25 8.95-22.48 8.8-15.7 8.8-13.6 8.8-11.5 8.95-10.1 9.1-8.7 9.13-8.47 9.15-8.25 9.38-7.63 9.6-7 9.95-6.5L9.95-6.5Q10.85-5.3 12.5-5.3 14.15-5.3 15.28-6.05 16.4-6.8 16.95-7.9L16.95-7.9Q18.1-10.25 18.35-11.95L18.35-11.95 18.45-12.7Q18.7-16.25 18.7-21.1 18.7-25.95 18.65-27.45 18.6-28.95 18.5-29.93 18.4-30.9 18.32-31.65 18.25-32.4 18.2-32.83 18.15-33.25 18.15-33.3L18.15-33.3Q18.15-33.85 18.7-34.2L18.7-34.2Q19.55-34.85 21.33-35.3 23.1-35.75 24.5-35.75 25.9-35.75 25.9-35.1L25.9-35.1Q25.9-35 25.65-33.45L25.65-33.45Q24.55-26.65 24.55-14.55L24.55-14.55Q24.55-5.6 25.75-1.8L25.75-1.8Q25.95-1.2 25.95-0.98 25.95-0.75 25.55-0.4L25.55-0.4Q24.05 0.75 21.58 0.75 19.1 0.75 18.9-0.5L18.9-0.5Q18.65-1.15 18.6-3.1L18.6-3.1 18.55-3.7Q18.55-4.15 18.35-4.15L18.35-4.15 17.8-3.8Q16.85-2.2 15.6-1.13 14.35-0.05 13.2 0.35L13.2 0.35Q11.55 0.95 9.98 0.95 8.4 0.95 6.83 0.13 5.25-0.7 4.48-1.8 3.7-2.9 3.2-4.4L3.2-4.4Q2.55-6.55 2.55-8.7ZM28.8 0.35L28.8 0.35Q29.7-5.05 29.7-12.6 29.7-20.15 29.25-22.4L29.25-22.4Q29.25-23.05 30.75-23.05L30.75-23.05Q33.05-23.05 33.8-21.3L33.8-21.3Q33.85-21.15 34.05-21.15 34.25-21.15 34.35-21.25L34.35-21.25Q35.9-22.85 39.15-22.85 42.4-22.85 44.3-21.2 46.2-19.55 46.2-16.4L46.2-16.4Q46.2-14.5 45.88-11 45.55-7.5 45.55-5.8L45.55-5.8Q45.55-1.75 46.9 0.05L46.9 0.05Q47.1 0.3 47.1 0.55L47.1 0.55Q47.1 1.2 45.7 1.2L45.7 1.2Q39.5 1.2 39.5-4.3L39.5-4.3Q39.5-6.4 40.45-10.15 41.4-13.9 41.4-15.85L41.4-15.85Q41.4-19.85 38.1-19.85L38.1-19.85Q36.5-19.85 35.68-18.9 34.85-17.95 34.75-16.73 34.65-15.5 34.65-12.1L34.65-12.1Q34.65-6.9 35-3.05L35-3.05 35.1-1.95Q35.1-0.55 33.28 0.23 31.45 1 30.13 1 28.8 1 28.8 0.35ZM53.9-26.75L53.9-26.75 52.7-26.8Q51.35-26.8 50.95-26.15L50.95-26.15Q50.85-26 50.7-26L50.7-26Q50.05-26 50.05-28.23 50.05-30.45 50.73-31.05 51.4-31.65 53.08-31.65 54.75-31.65 55.35-31.08 55.95-30.5 55.95-29.15 55.95-27.8 55.5-27.28 55.05-26.75 53.9-26.75ZM49.9-1.5L49.9-1.5 50.45-13.15Q50.45-17.3 49.5-18.8L49.5-18.8Q49.2-19.3 48.8-19.55L48.8-19.55Q48.5-19.65 48.5-19.95L48.5-19.95Q48.5-20.85 51.05-21.7 53.6-22.55 54.78-22.55 55.95-22.55 56-21.95L56-21.95Q56-20.95 55.73-16.28 55.45-11.6 55.45-6.45 55.45-1.3 56.05-0.05L56.05-0.05Q56.2 0.2 56.2 0.45L56.2 0.45Q56.2 1.1 54.3 1.1 52.4 1.1 50.4 0.1L50.4 0.1Q49.9-0.15 49.9-1.5ZM58.5-19.5L58.5-19.5 58.65-21.5Q58.7-21.95 59.35-21.95L59.35-21.95 61.1-21.95 60.9-25.95 60.9-26.15Q60.9-27.3 62.65-28.35 64.4-29.4 65.85-29.4L65.85-29.4Q66.3-29.4 66.3-29L66.3-29 66.3-28.95Q66.1-27.6 65.9-22L65.9-22Q68.1-22 68.7-22.1 69.3-22.2 69.35-22.2L69.35-22.2Q69.7-22.2 69.7-21.6 69.7-21 69.15-20.08 68.6-19.15 67.95-19.1L67.95-19.1 65.85-19.1Q65.8-17.4 65.8-13.38 65.8-9.35 65.88-6.75 65.95-4.15 66.05-2.83 66.15-1.5 66.28-0.7 66.4 0.1 66.48 0.45 66.55 0.8 66.55 0.9L66.55 0.9Q66.55 1.4 65.9 1.45L65.9 1.45Q63.95 1.45 62.03 0.9 60.1 0.35 60.1-1L60.1-1Q61.15-9.4 61.15-19.05L61.15-19.05Q59.8-19.05 59.1-18.95L59.1-18.95 59.05-18.95Q58.6-18.95 58.5-19.5ZM75.6-26.75L75.6-26.75 74.4-26.8Q73.05-26.8 72.65-26.15L72.65-26.15Q72.55-26 72.4-26L72.4-26Q71.75-26 71.75-28.23 71.75-30.45 72.42-31.05 73.1-31.65 74.78-31.65 76.45-31.65 77.05-31.08 77.65-30.5 77.65-29.15 77.65-27.8 77.2-27.28 76.75-26.75 75.6-26.75ZM71.6-1.5L71.6-1.5 72.15-13.15Q72.15-17.3 71.2-18.8L71.2-18.8Q70.9-19.3 70.5-19.55L70.5-19.55Q70.2-19.65 70.2-19.95L70.2-19.95Q70.2-20.85 72.75-21.7 75.3-22.55 76.48-22.55 77.65-22.55 77.7-21.95L77.7-21.95Q77.7-20.95 77.42-16.28 77.15-11.6 77.15-6.45 77.15-1.3 77.75-0.05L77.75-0.05Q77.9 0.2 77.9 0.45L77.9 0.45Q77.9 1.1 76 1.1 74.1 1.1 72.1 0.1L72.1 0.1Q71.6-0.15 71.6-1.5ZM80.95 0.35L80.95 0.35Q81.85-5.05 81.85-12.6 81.85-20.15 81.4-22.4L81.4-22.4Q81.4-23.05 82.9-23.05L82.9-23.05Q85.2-23.05 85.95-21.3L85.95-21.3Q86-21.15 86.2-21.15 86.4-21.15 86.5-21.25L86.5-21.25Q88.05-22.85 91.3-22.85 94.55-22.85 96.45-21.2 98.35-19.55 98.35-16.4L98.35-16.4Q98.35-14.5 98.03-11 97.7-7.5 97.7-5.8L97.7-5.8Q97.7-1.75 99.05 0.05L99.05 0.05Q99.25 0.3 99.25 0.55L99.25 0.55Q99.25 1.2 97.85 1.2L97.85 1.2Q91.65 1.2 91.65-4.3L91.65-4.3Q91.65-6.4 92.6-10.15 93.55-13.9 93.55-15.85L93.55-15.85Q93.55-19.85 90.25-19.85L90.25-19.85Q88.65-19.85 87.83-18.9 87-17.95 86.9-16.73 86.8-15.5 86.8-12.1L86.8-12.1Q86.8-6.9 87.15-3.05L87.15-3.05 87.25-1.95Q87.25-0.55 85.42 0.23 83.6 1 82.28 1 80.95 1 80.95 0.35ZM104.2-20.18Q105.3-21.3 107.1-22.08 108.9-22.85 110.55-22.85 112.2-22.85 113.9-22.1L113.9-22.1Q114.1-22.1 114.2-22.2L114.2-22.2Q115.5-23.5 118-23.5L118-23.5Q118.6-23.5 118.6-22.95L118.6-22.95Q118.6-22.9 118.5-22.5 118.4-22.1 118.25-21.33 118.1-20.55 118-19.45L118-19.45Q117.65-16.6 117.63-13.15 117.6-9.7 117.6-6.25L117.6-6.25 117.75 4.25Q117.75 9.3 115.15 12.65L115.15 12.65Q114.1 14 111.98 15 109.85 16 107 16L107 16Q106.35 15.6 106.35 15.2 106.35 14.8 106.9 14.55L106.9 14.55Q110.05 13.1 111.4 7.68 112.75 2.25 112.75-8.8L112.75-8.8 112.65-15.8 112.5-19.2Q112.5-19.65 111.1-19.85L111.1-19.85Q109.3-19.85 108.08-18.68 106.85-17.5 106.4-15.6L106.4-15.6Q105.6-12.55 105.6-10.33 105.6-8.1 106.33-6.4 107.05-4.7 108.85-4.7L108.85-4.7Q109.35-4.7 109.78-4.9 110.2-5.1 110.35-5.1L110.35-5.1Q110.85-5.1 110.85-4.1 110.85-3.1 110.7-2.48 110.55-1.85 110.1-1.1L110.1-1.1Q109.1 0.55 106.2 0.55L106.2 0.55Q103.3 0.55 102.05-1.55L102.05-1.55Q100.75-3.7 100.55-5.4L100.55-5.4Q100.25-7.95 100.25-8.75 100.25-9.55 100.28-10.03 100.3-10.5 100.53-11.93 100.75-13.35 101.13-14.63 101.5-15.9 102.3-17.48 103.1-19.05 104.2-20.18ZM138.25-22.15L138.25-22.15 138.25-21.45 147.1-21.45 147.1-21.55Q147.15-22.75 147.15-24.58 147.15-26.4 147.1-27.78 147.05-29.15 147-30.1 146.95-31.05 146.88-31.75 146.8-32.45 146.75-32.83 146.7-33.2 146.7-33.5 146.7-33.8 147.25-34.2L147.25-34.2Q149.65-35.8 152.6-35.8L152.6-35.8Q154.45-35.8 154.45-35.15L154.45-35.15Q154.45-35.1 154.35-34.6L154.35-34.6Q153.4-29.85 153.15-21.45L153.15-21.45Q153-13.05 153-12.45L153-12.45Q153-4.7 153.9-1.7L153.9-1.7Q154.05-1.3 154.05-1.03 154.05-0.75 153.65-0.4L153.65-0.4Q151.8 0.8 148.85 0.8L148.85 0.8Q146.95 0.8 146.7-0.5L146.7-0.5Q146.55-1.2 146.55-2.68 146.55-4.15 146.73-7.2 146.9-10.25 147-17.85L147-17.85 138.25-17.85Q138.25-6.45 138.95-1.85L138.95-1.85Q138.95-0.65 136.65 0.13 134.35 0.9 132.85 0.9 131.35 0.9 131.35 0.45L131.35 0.45Q131.35 0.15 131.5-0.3L131.5-0.3Q132.45-2.4 132.45-17.2L132.45-17.2 132.45-17.85 129.5-17.85Q129.1-17.85 129.1-18.15L129.1-18.15Q129.1-18.25 129.3-18.93 129.5-19.6 130.23-20.5 130.95-21.4 131.85-21.4L131.85-21.4 132.4-21.4Q132.4-31.25 131.25-32.75L131.25-32.75 131.05-33.05Q130.75-33.3 130.75-33.68 130.75-34.05 131.3-34.3L131.3-34.3Q132.05-34.75 133.98-35.2 135.9-35.65 137.45-35.65 139-35.65 139-34.95L139-34.95 139-34.8Q138.4-29.6 138.25-22.15ZM162.05-12.7L162.05-12.7 162.1-11.45Q162.1-11.15 162.5-11.15L162.5-11.15Q164.1-11.3 165.3-11.98 166.5-12.65 167.1-13.5L167.1-13.5Q168.3-15.35 168.4-16.7L168.4-16.7 168.45-17.3Q168.45-20 166.3-20L166.3-20Q164.7-20 163.7-18.6L163.7-18.6Q162.05-16.4 162.05-12.7ZM172.95-6.05L172.95-6.05Q172.95-4.15 172.18-2.73 171.4-1.3 170.43-0.63 169.45 0.05 168.15 0.45L168.15 0.45Q166.5 0.95 165 0.95L165 0.95Q160.8 0.95 158.8-2.2 156.8-5.35 156.8-10.23 156.8-15.1 159.28-18.9 161.75-22.7 166.7-22.7L166.7-22.7Q171.2-22.7 172.8-19.55L172.8-19.55Q173.45-18.35 173.45-17.28 173.45-16.2 173.35-15.58 173.25-14.95 172.65-13.7 172.05-12.45 171.05-11.45 170.05-10.45 167.9-9.55 165.75-8.65 162.85-8.35L162.85-8.35Q162.45-8.35 162.45-8L162.45-8Q162.45-7.55 162.78-6.68 163.1-5.8 163.5-5.2L163.5-5.2Q164.6-3.8 166.75-3.8L166.75-3.8Q168.9-3.8 170.4-5.2L170.4-5.2Q171.2-5.95 171.7-7.05L171.7-7.05Q171.9-7.45 172.23-7.45 172.55-7.45 172.75-6.9 172.95-6.35 172.95-6.05ZM191.7-15L191.7-15 191.6-8.6Q191.6-1.95 193.05-0.6L193.05-0.6Q193.25-0.4 193.25-0.15L193.25-0.15Q193.25 0.6 190.03 0.6 186.8 0.6 186.6-1.3L186.6-1.3Q186.55-1.75 186.55-3.15L186.55-3.15 186.75-11.15Q186.75-11.5 186.35-11.5L186.35-11.5Q183.95-11.5 181.85-10.15 179.75-8.8 179.75-6.7L179.75-6.7Q179.75-5.6 180.35-4.85 180.95-4.1 181.83-4.1 182.7-4.1 183.28-4.45 183.85-4.8 183.95-4.85L183.95-4.85Q184.8-4.75 184.8-3.08 184.8-1.4 183.25-0.38 181.7 0.65 180 0.65 178.3 0.65 177.08 0.05 175.85-0.55 175.3-1.3 174.75-2.05 174.4-3L174.4-3Q174.05-4.15 174.05-5L174.05-5Q174.05-8.5 176.25-10.6 178.45-12.7 181.9-13.6L181.9-13.6Q186.45-14.5 186.65-15.25L186.65-15.25Q186.8-15.8 186.8-17.1L186.8-17.1Q186.8-19.75 184.1-19.75L184.1-19.75Q182.95-19.75 182.05-19.03 181.15-18.3 181.15-17.2L181.15-17.2 181.45-16Q181.35-15.15 179.65-15L179.65-15 179.1-14.95Q177.6-14.95 176.73-15.7 175.85-16.45 175.85-17.7L175.85-17.7Q175.85-18.5 176.38-19.48 176.9-20.45 177.7-21.05 178.5-21.65 180.18-22.13 181.85-22.6 183.4-22.6 184.95-22.6 185.8-22.5 186.65-22.4 188.13-22.03 189.6-21.65 190.58-20.6 191.55-19.55 191.63-18.38 191.7-17.2 191.7-15ZM210.25-17.2L210-13.4 210.2-11.65Q210.2-10.7 208.4-10.7L208.4-10.7Q204.75-10.7 204.75-13.45L204.75-13.45Q204.75-14.1 205.1-15.25 205.45-16.4 205.45-17.25 205.45-18.1 204.95-18.73 204.45-19.35 203.5-19.35 202.55-19.35 201.88-18.68 201.2-18 201.05-17.3L201.05-17.3 200.85-16.6Q200.55-15.05 200.55-11.43 200.55-7.8 200.65-5.73 200.75-3.65 200.85-2.88 200.95-2.1 200.95-1.95L200.95-1.95Q200.95-0.7 199.4 0.08 197.85 0.85 196.3 0.85 194.75 0.85 194.75 0.2L194.75 0.2 195-1.35Q195.7-5.7 195.7-12.7 195.7-19.7 195.2-22.2L195.2-22.2Q195.2-22.8 196.25-22.8L196.25-22.8Q198.95-22.8 199.85-20.95L199.85-20.95Q199.9-20.75 200.03-20.75 200.15-20.75 200.7-21.2L200.7-21.2Q202.35-22.55 204.6-22.55L204.6-22.55Q206-22.55 207.4-22L207.4-22Q210.25-20.85 210.25-17.2L210.25-17.2ZM211.75-19.5L211.75-19.5 211.9-21.5Q211.95-21.95 212.6-21.95L212.6-21.95 214.35-21.95 214.15-25.95 214.15-26.15Q214.15-27.3 215.9-28.35 217.65-29.4 219.1-29.4L219.1-29.4Q219.55-29.4 219.55-29L219.55-29 219.55-28.95Q219.35-27.6 219.15-22L219.15-22Q221.35-22 221.95-22.1 222.55-22.2 222.6-22.2L222.6-22.2Q222.95-22.2 222.95-21.6 222.95-21 222.4-20.08 221.85-19.15 221.2-19.1L221.2-19.1 219.1-19.1Q219.05-17.4 219.05-13.38 219.05-9.35 219.13-6.75 219.2-4.15 219.3-2.83 219.4-1.5 219.53-0.7 219.65 0.1 219.73 0.45 219.8 0.8 219.8 0.9L219.8 0.9Q219.8 1.4 219.15 1.45L219.15 1.45Q217.2 1.45 215.28 0.9 213.35 0.35 213.35-1L213.35-1Q214.4-9.4 214.4-19.05L214.4-19.05Q213.05-19.05 212.35-18.95L212.35-18.95 212.3-18.95Q211.85-18.95 211.75-19.5ZM238.9-6.85L238.9-6.85Q238.9-4.7 238.08-3.1 237.25-1.5 236.2-0.75 235.15 0 233.7 0.45L233.7 0.45Q231.8 1.05 230.25 1.05L230.25 1.05Q227 1.05 224.85-0.23 222.7-1.5 222.7-4.3L222.7-4.3Q222.7-5.95 223.6-7L223.6-7Q225-8.55 226.95-8.55L226.95-8.55Q227.55-8.55 227.55-8L227.55-8Q227.55-7.95 227.33-7.23 227.1-6.5 227.1-5.4 227.1-4.3 227.98-3.45 228.85-2.6 230.1-2.6 231.35-2.6 232.1-3.03 232.85-3.45 233.15-4.1L233.15-4.1Q233.6-5 233.6-5.8L233.6-5.8Q233.6-7.25 232.15-8.3 230.7-9.35 228.95-9.95 227.2-10.55 225.75-11.95 224.3-13.35 224.3-15.45L224.3-15.45Q224.3-19.05 226.58-20.85 228.85-22.65 232.75-22.65L232.75-22.65Q234.45-22.65 236.33-22.18 238.2-21.7 238.2-20.58 238.2-19.45 237.83-18.5 237.45-17.55 236.9-17.55L236.9-17.55Q236.6-17.55 236.5-17.78 236.4-18 236.15-18.3 235.9-18.6 234.95-19.07 234-19.55 233.33-19.55 232.65-19.55 232.43-19.53 232.2-19.5 231.65-19.38 231.1-19.25 230.65-19L230.65-19Q229.5-18.35 229.5-17.1L229.5-17.1Q229.5-16.3 229.85-15.93 230.2-15.55 230.4-15.35 230.6-15.15 231.1-14.88 231.6-14.6 231.8-14.5 232-14.4 232.7-14.08 233.4-13.75 233.6-13.65L233.6-13.65Q238.9-11.15 238.9-6.85ZM247.75-2.1L247.75-2.1Q247.75 0.65 246.47 2.65 245.2 4.65 243.65 4.95L243.65 4.95Q243.3 4.95 243.3 4.8L243.3 4.8 243.4 4.5Q244.55 3.35 244.8 1.55L244.8 1.55 244.85 0.95Q244.85 0.1 244.15 0L244.15 0 243.9 0Q242.75 0 242.33-0.5 241.9-1 241.9-2.3 241.9-3.6 242.47-4.23 243.05-4.85 244.7-4.85 246.35-4.85 247.05-4.23 247.75-3.6 247.75-2.1ZM268.1-22.5L268.1-22.5 268.15-16.25 267.95-7.6Q268-7.4 268.1-7.4 268.2-7.4 268.25-7.5L268.25-7.5Q269.25-8.9 270.73-8.9 272.2-8.9 272.2-8.3L272.2-8.3Q272.2-6.4 272.93-5.38 273.65-4.35 274.98-4.35 276.3-4.35 277.52-6.15 278.75-7.95 278.75-10.95L278.75-10.95Q278.75-11.95 278.35-13.35L278.35-13.35Q277.55-16.15 275.35-17.1L275.35-17.1Q273.75-17.75 270.15-17.75L270.15-17.75Q269.75-17.75 269.75-18.3L269.75-18.3Q269.75-21.1 270.75-21.2L270.75-21.2Q272.1-21.2 273.6-21.9L273.6-21.9Q276.6-23.3 276.6-27.65L276.6-27.65Q276.6-32.35 271.2-32.35L271.2-32.35 269.65-32.25Q268.75-32.05 268.65-31.5L268.65-31.5 268.65-31.35Q268.1-29.35 268.1-22.5ZM260.75 0.7L260.75 0.7 260.85 0.15Q261.35-0.75 261.7-7.18 262.05-13.6 262.05-19.18 262.05-24.75 261.82-28.13 261.6-31.5 260.6-33L260.6-33Q260.4-33.25 260.4-33.6 260.4-33.95 261-34.2L261-34.2Q265.1-35.8 272.15-35.8L272.15-35.8Q273.9-35.8 275.95-35.33 278-34.85 279.32-34.15 280.65-33.45 281.73-32 282.8-30.55 282.95-28.55L282.95-28.55Q282.95-21.3 276.95-20.2L276.95-20.2Q276.65-20.1 276.65-19.98 276.65-19.85 276.9-19.7L276.9-19.7Q280-19.2 282.1-17.2L282.1-17.2Q283.15-16.25 284-14.25 284.85-12.25 284.85-9.65L284.85-9.65Q284.85-6.3 282.9-3.3L282.9-3.3Q281.3-0.85 278.25 0.2L278.25 0.2Q276.55 0.8 274.45 0.8L274.45 0.8Q269.2 0.8 267.8-2.55L267.8-2.55Q267.75-2.7 267.65-2.7L267.65-2.7 267.45-2.5Q266.4 1 261.45 1.15L261.45 1.15Q260.75 1.15 260.75 0.7ZM291.55-12.7L291.55-12.7 291.6-11.45Q291.6-11.15 292-11.15L292-11.15Q293.6-11.3 294.8-11.98 296-12.65 296.6-13.5L296.6-13.5Q297.8-15.35 297.9-16.7L297.9-16.7 297.95-17.3Q297.95-20 295.8-20L295.8-20Q294.2-20 293.2-18.6L293.2-18.6Q291.55-16.4 291.55-12.7ZM302.45-6.05L302.45-6.05Q302.45-4.15 301.68-2.73 300.9-1.3 299.93-0.63 298.95 0.05 297.65 0.45L297.65 0.45Q296 0.95 294.5 0.95L294.5 0.95Q290.3 0.95 288.3-2.2 286.3-5.35 286.3-10.23 286.3-15.1 288.78-18.9 291.25-22.7 296.2-22.7L296.2-22.7Q300.7-22.7 302.3-19.55L302.3-19.55Q302.95-18.35 302.95-17.28 302.95-16.2 302.85-15.58 302.75-14.95 302.15-13.7 301.55-12.45 300.55-11.45 299.55-10.45 297.4-9.55 295.25-8.65 292.35-8.35L292.35-8.35Q291.95-8.35 291.95-8L291.95-8Q291.95-7.55 292.28-6.68 292.6-5.8 293-5.2L293-5.2Q294.1-3.8 296.25-3.8L296.25-3.8Q298.4-3.8 299.9-5.2L299.9-5.2Q300.7-5.95 301.2-7.05L301.2-7.05Q301.4-7.45 301.73-7.45 302.05-7.45 302.25-6.9 302.45-6.35 302.45-6.05ZM314.05 13.85L314.05 13.85Q314.05 14.45 313.45 14.45L313.45 14.45 313.4 14.45Q311.75 14.45 309.68 13.3 307.6 12.15 307.6 10.65 307.6 9.15 309.5 5.43 311.4 1.7 311.4 0.45L311.4 0.45Q311.4-0.9 310.1-4.4L310.1-4.4Q308.45-8.95 307.47-11.8 306.5-14.65 305.38-16.82 304.25-19 303.75-19.4L303.75-19.4 303.25-19.75Q302.7-20.05 302.7-20.4L302.7-20.4Q302.7-21.1 304.88-21.83 307.05-22.55 308.7-22.55L308.7-22.55Q309.45-22.55 309.95-21.35L309.95-21.35Q310.85-19 311.9-14.85L311.9-14.85Q314.45-6.35 315.1-6.35L315.1-6.35Q315.55-6.35 316.93-9.85 318.3-13.35 318.3-15.5L318.3-15.5Q318.3-19.25 316.1-19.9L316.1-19.9Q315.6-20 315.6-20.4L315.6-20.4Q315.6-21.3 317.95-22.13 320.3-22.95 322.2-22.95L322.2-22.95Q323.85-22.95 323.85-20.8L323.85-20.8Q323.85-19.15 323.15-16.95 322.45-14.75 321.85-13.48 321.25-12.2 318.88-7.58 316.5-2.95 314.95 0.55L314.95 0.55Q313.25 4.75 313.25 9.1L313.25 9.1Q313.25 11.4 313.65 12.55 314.05 13.7 314.05 13.85ZM328.55-18.85L328.55-18.85Q327.25-18.8 326.67-18.78 326.1-18.75 326.1-19.05 326.1-19.35 326.4-19.65L326.4-19.65Q329.6-22.6 337.2-22.6L337.2-22.6Q339.8-22.6 341.3-22.15L341.3-22.15 341.8-22Q342.4-21.75 342.4-21.45L342.4-21.45Q342.4-21.2 342.05-21.05L342.05-21.05Q340.7-20.65 339.45-19.78 338.2-18.9 338.2-18.55L338.2-18.55 338.5-18.2Q340.1-17.3 340.97-15.35 341.85-13.4 341.95-11.9L341.95-11.9 342.05-10.35Q342.05-5.4 339.3-2.2 336.55 1 331.8 1L331.8 1Q329.4 1 327.65 0.15 325.9-0.7 325.07-1.78 324.25-2.85 323.75-4.2L323.75-4.2Q323.15-6.05 323.15-8.03 323.15-10 323.82-12 324.5-14 325.38-14.95 326.25-15.9 327.35-16.5L327.35-16.5Q328.75-17.25 329.6-17.25 330.45-17.25 330.45-16.9L330.45-16.9 330.15-16.4Q329.05-15.1 328.57-13 328.1-10.9 328.1-9.28 328.1-7.65 328.5-6.05 328.9-4.45 329.4-3.68 329.9-2.9 330.55-2.5L330.55-2.5Q331.5-1.9 332.55-1.9 333.6-1.9 334.6-2.73 335.6-3.55 336.05-4.9L336.05-4.9Q336.95-7.4 336.95-10.05L336.95-10.05Q336.95-14.25 334.82-16.55 332.7-18.85 328.55-18.85ZM344.5 0.35L344.5 0.35Q345.4-5.05 345.4-12.6 345.4-20.15 344.95-22.4L344.95-22.4Q344.95-23.05 346.45-23.05L346.45-23.05Q348.75-23.05 349.5-21.3L349.5-21.3Q349.55-21.15 349.75-21.15 349.95-21.15 350.05-21.25L350.05-21.25Q351.6-22.85 354.85-22.85 358.1-22.85 360-21.2 361.9-19.55 361.9-16.4L361.9-16.4Q361.9-14.5 361.57-11 361.25-7.5 361.25-5.8L361.25-5.8Q361.25-1.75 362.6 0.05L362.6 0.05Q362.8 0.3 362.8 0.55L362.8 0.55Q362.8 1.2 361.4 1.2L361.4 1.2Q355.2 1.2 355.2-4.3L355.2-4.3Q355.2-6.4 356.15-10.15 357.1-13.9 357.1-15.85L357.1-15.85Q357.1-19.85 353.8-19.85L353.8-19.85Q352.2-19.85 351.38-18.9 350.55-17.95 350.45-16.73 350.35-15.5 350.35-12.1L350.35-12.1Q350.35-6.9 350.7-3.05L350.7-3.05 350.8-1.95Q350.8-0.55 348.98 0.23 347.15 1 345.82 1 344.5 1 344.5 0.35ZM374.45-22.45L374.45-22.45Q375.35-22.45 376.07-22.23 376.8-22 376.85-22L376.85-22 377.15-22.25 376.95-27.7Q376.85-29.1 376.35-30.1 375.85-31.1 375.45-31.4L375.45-31.4 375-31.65Q374.7-31.85 374.7-32.1L374.7-32.1Q374.7-32.85 377.02-33.85 379.35-34.85 380.65-34.85 381.95-34.85 382.05-34.3L382.05-34.3Q382.3-32.6 382.3-27.83 382.3-23.05 382.07-18.45 381.85-13.85 381.85-8.03 381.85-2.2 382.6-0.7L382.6-0.7Q382.8-0.35 382.8-0.05L382.8-0.05Q382.8 0.7 380.65 0.7L380.65 0.7Q376.55 0.7 376.55-1.25L376.55-1.25Q376.45-2.05 376.45-3.73 376.45-5.4 376.77-9.98 377.1-14.55 377.1-17.03 377.1-19.5 374.63-19.5 372.15-19.5 370.85-16.6 369.55-13.7 369.55-10.8L369.55-10.8Q369.55-4.65 372.65-4.65L372.65-4.65Q373.1-4.65 373.52-4.83 373.95-5 374.05-5L374.05-5Q374.45-5 374.68-4.5 374.9-4 374.9-3.5L374.9-3.5Q374.9-1.8 373.55-0.63 372.2 0.55 370.25 0.55L370.25 0.55Q367.25 0.55 365.72-2.08 364.2-4.7 364.2-8.6L364.2-8.6Q364.2-13.55 366.55-17.8L366.55-17.8Q367.75-19.9 369.8-21.18 371.85-22.45 374.45-22.45ZM401.4-22.5L401.4-22.5 401.45-16.25 401.25-7.6Q401.3-7.4 401.4-7.4 401.5-7.4 401.55-7.5L401.55-7.5Q402.55-8.9 404.03-8.9 405.5-8.9 405.5-8.3L405.5-8.3Q405.5-6.4 406.23-5.38 406.95-4.35 408.28-4.35 409.6-4.35 410.82-6.15 412.05-7.95 412.05-10.95L412.05-10.95Q412.05-11.95 411.65-13.35L411.65-13.35Q410.85-16.15 408.65-17.1L408.65-17.1Q407.05-17.75 403.45-17.75L403.45-17.75Q403.05-17.75 403.05-18.3L403.05-18.3Q403.05-21.1 404.05-21.2L404.05-21.2Q405.4-21.2 406.9-21.9L406.9-21.9Q409.9-23.3 409.9-27.65L409.9-27.65Q409.9-32.35 404.5-32.35L404.5-32.35 402.95-32.25Q402.05-32.05 401.95-31.5L401.95-31.5 401.95-31.35Q401.4-29.35 401.4-22.5ZM394.05 0.7L394.05 0.7 394.15 0.15Q394.65-0.75 395-7.18 395.35-13.6 395.35-19.18 395.35-24.75 395.13-28.13 394.9-31.5 393.9-33L393.9-33Q393.7-33.25 393.7-33.6 393.7-33.95 394.3-34.2L394.3-34.2Q398.4-35.8 405.45-35.8L405.45-35.8Q407.2-35.8 409.25-35.33 411.3-34.85 412.63-34.15 413.95-33.45 415.03-32 416.1-30.55 416.25-28.55L416.25-28.55Q416.25-21.3 410.25-20.2L410.25-20.2Q409.95-20.1 409.95-19.98 409.95-19.85 410.2-19.7L410.2-19.7Q413.3-19.2 415.4-17.2L415.4-17.2Q416.45-16.25 417.3-14.25 418.15-12.25 418.15-9.65L418.15-9.65Q418.15-6.3 416.2-3.3L416.2-3.3Q414.6-0.85 411.55 0.2L411.55 0.2Q409.85 0.8 407.75 0.8L407.75 0.8Q402.5 0.8 401.1-2.55L401.1-2.55Q401.05-2.7 400.95-2.7L400.95-2.7 400.75-2.5Q399.7 1 394.75 1.15L394.75 1.15Q394.05 1.15 394.05 0.7ZM425-18.85L425-18.85Q423.7-18.8 423.13-18.78 422.55-18.75 422.55-19.05 422.55-19.35 422.85-19.65L422.85-19.65Q426.05-22.6 433.65-22.6L433.65-22.6Q436.25-22.6 437.75-22.15L437.75-22.15 438.25-22Q438.85-21.75 438.85-21.45L438.85-21.45Q438.85-21.2 438.5-21.05L438.5-21.05Q437.15-20.65 435.9-19.78 434.65-18.9 434.65-18.55L434.65-18.55 434.95-18.2Q436.55-17.3 437.43-15.35 438.3-13.4 438.4-11.9L438.4-11.9 438.5-10.35Q438.5-5.4 435.75-2.2 433 1 428.25 1L428.25 1Q425.85 1 424.1 0.15 422.35-0.7 421.53-1.78 420.7-2.85 420.2-4.2L420.2-4.2Q419.6-6.05 419.6-8.03 419.6-10 420.28-12 420.95-14 421.83-14.95 422.7-15.9 423.8-16.5L423.8-16.5Q425.2-17.25 426.05-17.25 426.9-17.25 426.9-16.9L426.9-16.9 426.6-16.4Q425.5-15.1 425.03-13 424.55-10.9 424.55-9.28 424.55-7.65 424.95-6.05 425.35-4.45 425.85-3.68 426.35-2.9 427-2.5L427-2.5Q427.95-1.9 429-1.9 430.05-1.9 431.05-2.73 432.05-3.55 432.5-4.9L432.5-4.9Q433.4-7.4 433.4-10.05L433.4-10.05Q433.4-14.25 431.28-16.55 429.15-18.85 425-18.85ZM458.8-22.25L458.8-22.25Q457.9-16.85 457.9-8.5L457.9-8.5Q457.9-2.35 458.4-0.4L458.4-0.4 458.6 0.25Q458.6 0.9 457.5 0.9L457.5 0.9Q453.65 0.9 453.1-1.25L453.1-1.25Q453.05-1.5 452.88-1.5 452.7-1.5 452.55-1.3L452.55-1.3Q451 0.75 447.75 0.75L447.75 0.75Q445.95 0.75 444-0.15L444-0.15Q442.8-0.7 442.05-2.08 441.3-3.45 441.3-5.45L441.3-5.45 442.05-16.4Q442.05-19.85 441.35-21.3L441.35-21.3Q441.1-21.85 441.1-22L441.1-22Q441.1-22.3 441.35-22.4L441.35-22.4Q442.15-22.65 443.4-22.65L443.4-22.65Q448.25-22.65 448.25-18.65L448.25-18.65Q448.25-17.4 447.23-12.95 446.2-8.5 446.2-6.63 446.2-4.75 447.03-3.75 447.85-2.75 449.33-2.75 450.8-2.75 451.65-3.8 452.5-4.85 452.65-5.9L452.65-5.9 452.8-6.95Q453-8.7 453-13.1 453-17.5 452.73-18.68 452.45-19.85 452.45-20.15L452.45-20.15Q452.45-21.4 454.45-22.13 456.45-22.85 458.05-22.85L458.05-22.85Q458.8-22.85 458.8-22.25ZM461.2 0.35L461.2 0.35Q462.1-5.05 462.1-12.6 462.1-20.15 461.65-22.4L461.65-22.4Q461.65-23.05 463.15-23.05L463.15-23.05Q465.45-23.05 466.2-21.3L466.2-21.3Q466.25-21.15 466.45-21.15 466.65-21.15 466.75-21.25L466.75-21.25Q468.3-22.85 471.55-22.85 474.8-22.85 476.7-21.2 478.6-19.55 478.6-16.4L478.6-16.4Q478.6-14.5 478.28-11 477.95-7.5 477.95-5.8L477.95-5.8Q477.95-1.75 479.3 0.05L479.3 0.05Q479.5 0.3 479.5 0.55L479.5 0.55Q479.5 1.2 478.1 1.2L478.1 1.2Q471.9 1.2 471.9-4.3L471.9-4.3Q471.9-6.4 472.85-10.15 473.8-13.9 473.8-15.85L473.8-15.85Q473.8-19.85 470.5-19.85L470.5-19.85Q468.9-19.85 468.08-18.9 467.25-17.95 467.15-16.73 467.05-15.5 467.05-12.1L467.05-12.1Q467.05-6.9 467.4-3.05L467.4-3.05 467.5-1.95Q467.5-0.55 465.68 0.23 463.85 1 462.53 1 461.2 1 461.2 0.35ZM491.15-22.45L491.15-22.45Q492.05-22.45 492.78-22.23 493.5-22 493.55-22L493.55-22 493.85-22.25 493.65-27.7Q493.55-29.1 493.05-30.1 492.55-31.1 492.15-31.4L492.15-31.4 491.7-31.65Q491.4-31.85 491.4-32.1L491.4-32.1Q491.4-32.85 493.73-33.85 496.05-34.85 497.35-34.85 498.65-34.85 498.75-34.3L498.75-34.3Q499-32.6 499-27.83 499-23.05 498.78-18.45 498.55-13.85 498.55-8.03 498.55-2.2 499.3-0.7L499.3-0.7Q499.5-0.35 499.5-0.05L499.5-0.05Q499.5 0.7 497.35 0.7L497.35 0.7Q493.25 0.7 493.25-1.25L493.25-1.25Q493.15-2.05 493.15-3.73 493.15-5.4 493.48-9.98 493.8-14.55 493.8-17.03 493.8-19.5 491.33-19.5 488.85-19.5 487.55-16.6 486.25-13.7 486.25-10.8L486.25-10.8Q486.25-4.65 489.35-4.65L489.35-4.65Q489.8-4.65 490.23-4.83 490.65-5 490.75-5L490.75-5Q491.15-5 491.38-4.5 491.6-4 491.6-3.5L491.6-3.5Q491.6-1.8 490.25-0.63 488.9 0.55 486.95 0.55L486.95 0.55Q483.95 0.55 482.43-2.08 480.9-4.7 480.9-8.6L480.9-8.6Q480.9-13.55 483.25-17.8L483.25-17.8Q484.45-19.9 486.5-21.18 488.55-22.45 491.15-22.45ZM518.45-15L518.45-15 518.35-8.6Q518.35-1.95 519.8-0.6L519.8-0.6Q520-0.4 520-0.15L520-0.15Q520 0.6 516.78 0.6 513.55 0.6 513.35-1.3L513.35-1.3Q513.3-1.75 513.3-3.15L513.3-3.15 513.5-11.15Q513.5-11.5 513.1-11.5L513.1-11.5Q510.7-11.5 508.6-10.15 506.5-8.8 506.5-6.7L506.5-6.7Q506.5-5.6 507.1-4.85 507.7-4.1 508.58-4.1 509.45-4.1 510.03-4.45 510.6-4.8 510.7-4.85L510.7-4.85Q511.55-4.75 511.55-3.08 511.55-1.4 510-0.38 508.45 0.65 506.75 0.65 505.05 0.65 503.83 0.05 502.6-0.55 502.05-1.3 501.5-2.05 501.15-3L501.15-3Q500.8-4.15 500.8-5L500.8-5Q500.8-8.5 503-10.6 505.2-12.7 508.65-13.6L508.65-13.6Q513.2-14.5 513.4-15.25L513.4-15.25Q513.55-15.8 513.55-17.1L513.55-17.1Q513.55-19.75 510.85-19.75L510.85-19.75Q509.7-19.75 508.8-19.03 507.9-18.3 507.9-17.2L507.9-17.2 508.2-16Q508.1-15.15 506.4-15L506.4-15 505.85-14.95Q504.35-14.95 503.48-15.7 502.6-16.45 502.6-17.7L502.6-17.7Q502.6-18.5 503.13-19.48 503.65-20.45 504.45-21.05 505.25-21.65 506.93-22.13 508.6-22.6 510.15-22.6 511.7-22.6 512.55-22.5 513.4-22.4 514.88-22.03 516.35-21.65 517.33-20.6 518.3-19.55 518.38-18.38 518.45-17.2 518.45-15ZM537-17.2L536.75-13.4 536.95-11.65Q536.95-10.7 535.15-10.7L535.15-10.7Q531.5-10.7 531.5-13.45L531.5-13.45Q531.5-14.1 531.85-15.25 532.2-16.4 532.2-17.25 532.2-18.1 531.7-18.73 531.2-19.35 530.25-19.35 529.3-19.35 528.63-18.68 527.95-18 527.8-17.3L527.8-17.3 527.6-16.6Q527.3-15.05 527.3-11.43 527.3-7.8 527.4-5.73 527.5-3.65 527.6-2.88 527.7-2.1 527.7-1.95L527.7-1.95Q527.7-0.7 526.15 0.08 524.6 0.85 523.05 0.85 521.5 0.85 521.5 0.2L521.5 0.2 521.75-1.35Q522.45-5.7 522.45-12.7 522.45-19.7 521.95-22.2L521.95-22.2Q521.95-22.8 523-22.8L523-22.8Q525.7-22.8 526.6-20.95L526.6-20.95Q526.65-20.75 526.77-20.75 526.9-20.75 527.45-21.2L527.45-21.2Q529.1-22.55 531.35-22.55L531.35-22.55Q532.75-22.55 534.15-22L534.15-22Q537-20.85 537-17.2L537-17.2ZM544.4-26.75L544.4-26.75 543.2-26.8Q541.85-26.8 541.45-26.15L541.45-26.15Q541.35-26 541.2-26L541.2-26Q540.55-26 540.55-28.23 540.55-30.45 541.23-31.05 541.9-31.65 543.58-31.65 545.25-31.65 545.85-31.08 546.45-30.5 546.45-29.15 546.45-27.8 546-27.28 545.55-26.75 544.4-26.75ZM540.4-1.5L540.4-1.5 540.95-13.15Q540.95-17.3 540-18.8L540-18.8Q539.7-19.3 539.3-19.55L539.3-19.55Q539-19.65 539-19.95L539-19.95Q539-20.85 541.55-21.7 544.1-22.55 545.27-22.55 546.45-22.55 546.5-21.95L546.5-21.95Q546.5-20.95 546.23-16.28 545.95-11.6 545.95-6.45 545.95-1.3 546.55-0.05L546.55-0.05Q546.7 0.2 546.7 0.45L546.7 0.45Q546.7 1.1 544.8 1.1 542.9 1.1 540.9 0.1L540.9 0.1Q540.4-0.15 540.4-1.5ZM554.5-12.7L554.5-12.7 554.55-11.45Q554.55-11.15 554.95-11.15L554.95-11.15Q556.55-11.3 557.75-11.98 558.95-12.65 559.55-13.5L559.55-13.5Q560.75-15.35 560.85-16.7L560.85-16.7 560.9-17.3Q560.9-20 558.75-20L558.75-20Q557.15-20 556.15-18.6L556.15-18.6Q554.5-16.4 554.5-12.7ZM565.4-6.05L565.4-6.05Q565.4-4.15 564.63-2.73 563.85-1.3 562.88-0.63 561.9 0.05 560.6 0.45L560.6 0.45Q558.95 0.95 557.45 0.95L557.45 0.95Q553.25 0.95 551.25-2.2 549.25-5.35 549.25-10.23 549.25-15.1 551.73-18.9 554.2-22.7 559.15-22.7L559.15-22.7Q563.65-22.7 565.25-19.55L565.25-19.55Q565.9-18.35 565.9-17.28 565.9-16.2 565.8-15.58 565.7-14.95 565.1-13.7 564.5-12.45 563.5-11.45 562.5-10.45 560.35-9.55 558.2-8.65 555.3-8.35L555.3-8.35Q554.9-8.35 554.9-8L554.9-8Q554.9-7.55 555.23-6.68 555.55-5.8 555.95-5.2L555.95-5.2Q557.05-3.8 559.2-3.8L559.2-3.8Q561.35-3.8 562.85-5.2L562.85-5.2Q563.65-5.95 564.15-7.05L564.15-7.05Q564.35-7.45 564.67-7.45 565-7.45 565.2-6.9 565.4-6.35 565.4-6.05ZM583.35-6.85L583.35-6.85Q583.35-4.7 582.52-3.1 581.7-1.5 580.65-0.75 579.6 0 578.15 0.45L578.15 0.45Q576.25 1.05 574.7 1.05L574.7 1.05Q571.45 1.05 569.3-0.23 567.15-1.5 567.15-4.3L567.15-4.3Q567.15-5.95 568.05-7L568.05-7Q569.45-8.55 571.4-8.55L571.4-8.55Q572-8.55 572-8L572-8Q572-7.95 571.77-7.23 571.55-6.5 571.55-5.4 571.55-4.3 572.42-3.45 573.3-2.6 574.55-2.6 575.8-2.6 576.55-3.03 577.3-3.45 577.6-4.1L577.6-4.1Q578.05-5 578.05-5.8L578.05-5.8Q578.05-7.25 576.6-8.3 575.15-9.35 573.4-9.95 571.65-10.55 570.2-11.95 568.75-13.35 568.75-15.45L568.75-15.45Q568.75-19.05 571.02-20.85 573.3-22.65 577.2-22.65L577.2-22.65Q578.9-22.65 580.77-22.18 582.65-21.7 582.65-20.58 582.65-19.45 582.27-18.5 581.9-17.55 581.35-17.55L581.35-17.55Q581.05-17.55 580.95-17.78 580.85-18 580.6-18.3 580.35-18.6 579.4-19.07 578.45-19.55 577.77-19.55 577.1-19.55 576.88-19.53 576.65-19.5 576.1-19.38 575.55-19.25 575.1-19L575.1-19Q573.95-18.35 573.95-17.1L573.95-17.1Q573.95-16.3 574.3-15.93 574.65-15.55 574.85-15.35 575.05-15.15 575.55-14.88 576.05-14.6 576.25-14.5 576.45-14.4 577.15-14.08 577.85-13.75 578.05-13.65L578.05-13.65Q583.35-11.15 583.35-6.85ZM589.4-4.25L589.4-4.25 590.6-4.3Q591.8-4.3 592.23-3.78 592.65-3.25 592.65-1.93 592.65-0.6 592.08 0.03 591.5 0.65 589.83 0.65 588.15 0.65 587.48 0 586.8-0.65 586.8-2.85 586.8-5.05 587.45-5.05L587.45-5.05 588-4.65Q588.55-4.25 589.4-4.25ZM586.45-32.75L586.45-32.75Q586.4-33 586.4-33.5 586.4-34 587.23-34.5 588.05-35 589.15-35.2L589.15-35.2Q591.05-35.6 592.2-35.6 593.35-35.6 593.35-34.6L593.35-34.6 593.25-34Q591.35-26.1 591.35-11.75L591.35-11.75Q591.35-10.15 591.4-9.68 591.45-9.2 591.4-9.05 591.35-8.9 590.88-8.63 590.4-8.35 589.6-8.35L589.6-8.35Q587.85-8.35 587.8-9.5L587.8-9.5Q587.8-27.25 586.45-32.75Z" opacity="1" transform="matrix(1,0,0,1,0,0)" fill="black" class="slogan-text-1" id="SvgjsPath4563" stroke-width="1" stroke="black" stroke-linejoin="round"></path></svg></g></svg></g></svg></g></svg></g></svg></g></svg></g></mask><g transform="matrix(1,0,0,1,39.55199999999999,79.45157148502042)"><svg viewBox="0 0 316.416 88.29685702995914" height="88.29685702995914" width="316.416"><g><svg viewBox="0 0 316.416 88.29685702995914" height="88.29685702995914" width="316.416"><g><svg viewBox="0 0 316.416 88.29685702995914" height="88.29685702995914" width="316.416"><g id="textblocktransform"><svg viewBox="0 0 316.416 88.29685702995914" height="88.29685702995914" width="316.416" id="textblock"><g><svg viewBox="0 0 316.416 48.90824678323985" height="48.90824678323985" width="316.416"><g transform="matrix(1,0,0,1,0,0)"><svg width="316.416" viewBox="0.95 -35.8 304.07 47.849999999999994" height="48.90824678323985" data-palette-color="#5660ec"><path d="M16.55 0.8L16.55 0.8Q12.35 0.8 9.05-0.88 5.75-2.55 3.85-5.9 1.95-9.25 1.95-14.15L1.95-14.15Q1.95-18.65 3.45-22.43 4.95-26.2 7.68-28.98 10.4-31.75 14.13-33.27 17.85-34.8 22.25-34.8L22.25-34.8Q26.55-34.8 28.8-33.85 31.05-32.9 31.05-30.35L31.05-30.35Q31.05-29 30.5-28 29.95-27 29.3-27L29.3-27Q28.85-27 28.03-27.48 27.2-27.95 26.5-28.35L26.5-28.35Q25.3-29.1 23.88-29.88 22.45-30.65 20.4-30.65L20.4-30.65Q17.4-30.65 15.08-28.73 12.75-26.8 11.43-23.3 10.1-19.8 10.1-15.05L10.1-15.05Q10.1-11.1 11.1-8.5 12.1-5.9 13.85-4.65 15.6-3.4 17.8-3.4L17.8-3.4Q19.7-3.4 21.23-4.2 22.75-5 23.93-6.05 25.1-7.1 26.05-7.88 27-8.65 27.85-8.65L27.85-8.65Q28.5-8.65 28.9-8.25 29.3-7.85 29.3-7L29.3-7Q29.3-4.9 27.58-3.1 25.85-1.3 22.95-0.25 20.05 0.8 16.55 0.8ZM41.05 0.75L41.05 0.75Q36.4 0.75 33.87-1.7 31.35-4.15 31.35-8.9L31.35-8.9Q31.35-12.25 32.4-15.1 33.45-17.95 35.35-20.08 37.25-22.2 39.72-23.38 42.2-24.55 45-24.55L45-24.55Q49.6-24.55 52.1-22.08 54.6-19.6 54.6-14.8L54.6-14.8Q54.6-11.5 53.55-8.68 52.5-5.85 50.65-3.73 48.8-1.6 46.35-0.43 43.9 0.75 41.05 0.75ZM42-3L42-3Q43.55-3 44.77-4.42 46-5.85 46.72-8.4 47.45-10.95 47.45-14.25L47.45-14.25Q47.45-17.4 46.5-19.1 45.55-20.8 43.9-20.8L43.9-20.8Q42.4-20.8 41.15-19.38 39.9-17.95 39.2-15.43 38.5-12.9 38.5-9.55L38.5-9.55Q38.5-6.35 39.45-4.67 40.4-3 42-3ZM78.84 0.5L74.4 0.5Q73.65 0.5 73.3-0.15 72.95-0.8 72.82-1.6 72.7-2.4 72.7-2.8L72.7-2.8Q72.7-3.5 72.8-4.48 72.9-5.45 73.02-6.53 73.15-7.6 73.3-8.5L73.3-8.5 74.15-13.7Q74.3-14.7 74.5-15.7 74.7-16.7 74.7-17.5L74.7-17.5Q74.7-18.1 74.45-18.4 74.2-18.7 73.8-18.7L73.8-18.7Q73.15-18.7 71.77-17.48 70.4-16.25 68.87-13.98 67.34-11.7 66.09-8.55 64.84-5.4 64.45-1.5L64.45-1.5 62.7-9.1Q64.2-13.45 66.09-16.4 68-19.35 70-21.13 72-22.9 73.84-23.7 75.7-24.5 77.15-24.5L77.15-24.5Q78.84-24.5 79.87-23.88 80.9-23.25 81.34-22.23 81.8-21.2 81.8-20.05L81.8-20.05Q81.8-18.75 81.62-17.6 81.45-16.45 81.25-15.15L81.25-15.15 78.84 0.5ZM58.85 0.7L58.85 0.7Q58.2 0.7 57.82 0.48 57.45 0.25 57.4-0.7 57.35-1.65 57.6-3.75L57.6-3.75 59.95-24.55 64.4-24.55Q65.55-24.55 66.12-23.45 66.7-22.35 66.7-20.95L66.7-20.95Q66.7-20.3 66.2-18.93 65.7-17.55 65.09-16.03 64.5-14.5 64.09-13.35L64.09-13.35 62.8-9.25 65.25-9.55 64.45-1.5Q64.4-0.9 63.65-0.45 62.9 0 61.87 0.25 60.85 0.5 60 0.6 59.15 0.7 58.85 0.7ZM93.54 0.8L93.54 0.8Q91.29 0.8 89.84-0.75 88.39-2.3 88.09-5.35L88.09-5.35 86.99-16.55Q86.89-17.7 86.67-18.88 86.44-20.05 86.09-20.75L86.09-20.75Q85.74-21.45 85.49-21.73 85.24-22 85.24-22.4L85.24-22.4Q85.24-22.8 85.92-23.18 86.59-23.55 87.57-23.88 88.54-24.2 89.57-24.38 90.59-24.55 91.29-24.55L91.29-24.55Q92.34-24.55 92.89-23.6 93.44-22.65 93.74-19.85L93.74-19.85 95.09-7.15Q95.24-5.7 95.52-5.05 95.79-4.4 96.39-4.4L96.39-4.4Q96.74-4.4 97.52-5.18 98.29-5.95 99.19-7.63 100.09-9.3 100.72-11.98 101.34-14.65 101.34-18.5L101.34-18.5Q101.34-19.7 101.02-20.35 100.69-21 100.69-21.5L100.69-21.5Q100.69-22 101.34-22.55 101.99-23.1 102.97-23.55 103.94-24 104.89-24.28 105.84-24.55 106.44-24.55L106.44-24.55Q107.14-24.55 107.84-24.18 108.54-23.8 108.54-22.2L108.54-22.2Q108.54-19.85 107.82-16.85 107.09-13.85 105.77-10.75 104.44-7.65 102.59-5.03 100.74-2.4 98.47-0.8 96.19 0.8 93.54 0.8ZM118.49 0.8L118.49 0.8Q114.64 0.8 112.29-1.63 109.94-4.05 109.94-8.3L109.94-8.3Q109.94-11.85 111.02-14.8 112.09-17.75 113.99-19.95 115.89-22.15 118.42-23.35 120.94-24.55 123.84-24.55L123.84-24.55Q127.09-24.55 129.17-23.08 131.24-21.6 131.24-18.85L131.24-18.85Q131.24-16.15 129.29-14.1 127.34-12.05 123.79-10.58 120.24-9.1 115.49-8.1L115.49-8.1 114.84-11.45Q117.34-11.75 119.47-12.58 121.59-13.4 122.92-14.78 124.24-16.15 124.34-18L124.34-18Q124.39-19.25 123.92-20.03 123.44-20.8 122.39-20.8L122.39-20.8Q120.99-20.8 119.77-19.33 118.54-17.85 117.79-15.45 117.04-13.05 117.04-10.3L117.04-10.3Q117.04-7.4 117.82-5.98 118.59-4.55 120.69-4.55L120.69-4.55Q122.84-4.55 124.69-5.33 126.54-6.1 127.79-6.9L127.79-6.9Q128.19-7.15 128.56-7.35 128.94-7.55 129.19-7.55L129.19-7.55Q129.49-7.55 129.69-7.3 129.89-7.05 129.89-6.7L129.89-6.7Q129.89-5.8 129.12-4.55 128.34-3.3 126.87-2.08 125.39-0.85 123.29-0.03 121.19 0.8 118.49 0.8ZM140.44-1.45L140.44-1.45 138.79-8.75Q140.64-13.55 142.54-17.07 144.44-20.6 146.44-22.55 148.44-24.5 150.49-24.5L150.49-24.5Q151.74-24.5 152.49-23.8 153.24-23.1 153.24-21.55L153.24-21.55Q153.24-20.45 152.96-19.38 152.69-18.3 152.19-17.6 151.69-16.9 150.99-16.9L150.99-16.9Q150.34-16.9 149.51-17.32 148.69-17.75 147.54-17.75L147.54-17.75Q146.79-17.75 145.74-16.45 144.69-15.15 143.61-12.9 142.54-10.65 141.69-7.7 140.84-4.75 140.44-1.45ZM134.89 0.7L134.89 0.7Q134.24 0.7 133.86 0.48 133.49 0.25 133.44-0.7 133.39-1.65 133.64-3.75L133.64-3.75 135.99-24.55 140.44-24.55Q141.59-24.55 142.16-23.45 142.74-22.35 142.74-20.95L142.74-20.95Q142.74-20.3 142.26-18.93 141.79-17.55 141.21-16.03 140.64-14.5 140.24-13.35L140.24-13.35 139.04-9.25 141.29-9.55 140.44-1.45Q140.39-0.85 139.64-0.43 138.89 0 137.89 0.25 136.89 0.5 136.04 0.6 135.19 0.7 134.89 0.7ZM160.73 0.8L160.73 0.8Q156.69 0.8 154.38-0.4 152.09-1.6 152.09-3.9L152.09-3.9Q152.09-5.3 152.48-6.18 152.88-7.05 153.44-7.05L153.44-7.05Q153.84-7.05 154.21-6.85 154.59-6.65 155.34-6.1L155.34-6.1Q156.23-5.45 157.46-4.8 158.69-4.15 159.96-3.73 161.23-3.3 162.23-3.3L162.23-3.3Q163.48-3.3 164.23-3.88 164.98-4.45 164.98-5.55L164.98-5.55Q164.98-6.35 164.51-6.93 164.03-7.5 162.84-8.25L162.84-8.25 159.28-10.4Q157.19-11.7 155.94-13.25 154.69-14.8 154.69-17.05L154.69-17.05Q154.69-20.4 157.19-22.45 159.69-24.5 164.69-24.5L164.69-24.5Q167.88-24.5 169.56-23.88 171.24-23.25 171.24-21.65L171.24-21.65Q171.24-20.2 170.76-19.1 170.28-18 169.48-18L169.48-18Q169.23-18 168.88-18.15 168.53-18.3 168.23-18.45L168.23-18.45Q167.73-18.7 166.84-19.2 165.94-19.7 164.94-20.13 163.94-20.55 162.98-20.55L162.98-20.55Q161.94-20.55 161.38-19.98 160.84-19.4 160.84-18.6L160.84-18.6Q160.84-17.8 161.31-17.2 161.78-16.6 163.19-16L163.19-16 166.53-14.6Q169.03-13.55 170.31-12 171.59-10.45 171.59-8.05L171.59-8.05Q171.59-5.15 170.09-3.18 168.59-1.2 166.11-0.2 163.63 0.8 160.73 0.8ZM179.83 0.8L179.83 0.8Q177.03 0.8 175.58-1.5 174.13-3.8 174.13-7.85L174.13-7.85Q174.13-11.5 175.28-14.55 176.43-17.6 178.38-19.83 180.33-22.05 182.86-23.28 185.38-24.5 188.13-24.5L188.13-24.5Q190.28-24.5 192.06-23.93 193.83-23.35 195.08-22.75L195.08-22.75 193.63-16.55Q192.33-17.45 190.71-18.35 189.08-19.25 187.61-19.83 186.13-20.4 185.18-20.4L185.18-20.4Q184.03-20.4 183.06-18.88 182.08-17.35 181.51-14.93 180.93-12.5 180.93-9.75L180.93-9.75Q180.93-7.35 181.26-5.85 181.58-4.35 182.33-4.35L182.33-4.35Q182.88-4.35 184.28-5.73 185.68-7.1 187.76-10.45 189.83-13.8 192.28-19.7L192.28-19.7 194.03-15.05Q191.33-9.05 188.88-5.58 186.43-2.1 184.21-0.65 181.98 0.8 179.83 0.8ZM195.93 0.5L192.33 0.5Q190.93 0.5 190.48-0.3 190.03-1.1 190.03-2.2L190.03-2.2Q190.03-3.05 190.26-4.38 190.48-5.7 190.83-7.25 191.18-8.8 191.58-10.2L191.58-10.2 192.68-13.95 191.08-15.25 192.28-22.8Q193.88-23.05 195.28-23.45 196.68-23.85 197.71-24.15 198.73-24.45 199.23-24.45L199.23-24.45Q200.03-24.45 200.03-23.6L200.03-23.6Q200.03-23.2 199.41-21.4 198.78-19.6 198.08-16.85 197.38-14.1 197.03-10.8L197.03-10.8 195.93 0.5ZM211.58 0.65L211.58 0.65Q207.13 0.65 204.31-0.65 201.48-1.95 201.48-4.4L201.48-4.4Q201.48-6.35 201.88-7.23 202.28-8.1 203.03-8.1L203.03-8.1Q203.53-8.1 204.41-7.45 205.28-6.8 206.5-5.98 207.73-5.15 209.23-4.5 210.73-3.85 212.53-3.85L212.53-3.85Q215.18-3.85 216.41-5.05 217.63-6.25 217.63-7.95L217.63-7.95Q217.63-9.65 216.86-10.8 216.08-11.95 214.18-13.2L214.18-13.2 210.53-15.6Q208.83-16.7 207.36-17.98 205.88-19.25 204.93-20.95 203.98-22.65 203.98-25L203.98-25Q203.98-28.1 205.66-30.3 207.33-32.5 210.28-33.65 213.23-34.8 217.03-34.8L217.03-34.8Q220.23-34.8 222-34.4 223.78-34 224.48-33.25 225.18-32.5 225.18-31.35L225.18-31.35Q225.18-29.95 224.75-28.9 224.33-27.85 223.68-27.85L223.68-27.85Q223.18-27.85 222.56-28.25 221.93-28.65 220.93-29.05L220.93-29.05Q219.98-29.5 218.66-29.88 217.33-30.25 215.78-30.25L215.78-30.25Q213.83-30.25 212.66-29.15 211.48-28.05 211.48-26.25L211.48-26.25Q211.48-24.85 212.28-23.8 213.08-22.75 214.83-21.85L214.83-21.85 218.13-20.15Q220.33-19.05 222.03-17.88 223.73-16.7 224.71-14.95 225.68-13.2 225.68-10.4L225.68-10.4Q225.68-5.1 221.88-2.23 218.08 0.65 211.58 0.65ZM235.93 11.05L235.93 11.05Q233.13 11.05 231.38 10.23 229.63 9.4 228.8 7.88 227.98 6.35 227.98 4.15L227.98 4.15Q227.98 3.35 228.3 2.93 228.63 2.5 228.93 2.5L228.93 2.5Q229.28 2.5 229.6 2.8 229.93 3.1 230.53 3.5L230.53 3.5Q231.48 4.1 232.73 4.78 233.98 5.45 235.4 5.95 236.83 6.45 238.13 6.45L238.13 6.45Q239.08 6.45 240.03 5.78 240.98 5.1 241.95 3.23 242.93 1.35 243.88-2.25L243.88-2.25 246.78-13.65 247.03-13.65Q245.28-8.75 242.95-5.58 240.63-2.4 238.1-0.9 235.58 0.6 233.13 0.6L233.13 0.6Q231.03 0.6 230.03-0.55 229.03-1.7 229.03-3.75L229.03-3.75Q229.03-4.75 229.15-5.95 229.28-7.15 229.58-9.7L229.58-9.7 231.43-24.55 235.58-24.55Q236.43-24.55 237.1-23.58 237.78-22.6 237.78-21.2L237.78-21.2Q237.78-20.4 237.7-19.48 237.63-18.55 237.48-17.4 237.33-16.25 237.08-14.75L237.08-14.75 236.43-10.45Q236.23-9.05 236.13-8.13 236.03-7.2 236.03-6.5L236.03-6.5Q236.03-5.85 236.18-5.38 236.33-4.9 236.88-4.9L236.88-4.9Q237.58-4.9 238.58-5.95 239.58-7 240.68-8.65 241.78-10.3 242.75-12.2 243.73-14.1 244.33-15.9 244.93-17.7 244.93-18.95L244.93-18.95Q244.93-19.8 244.85-20.78 244.78-21.75 244.78-22.35L244.78-22.35Q244.78-22.95 245.78-23.45 246.78-23.95 248.15-24.25 249.53-24.55 250.63-24.55L250.63-24.55Q251.53-24.55 252.03-23.68 252.53-22.8 252.38-20.95L252.38-20.95Q252.38-20.1 252.18-18.68 251.98-17.25 251.83-15.8L251.83-15.8 250.28-1.5Q249.88 1.9 248.48 4.28 247.08 6.65 245.03 8.15 242.98 9.65 240.6 10.35 238.23 11.05 235.93 11.05ZM277.82 0.5L273.38 0.5Q272.63 0.5 272.27-0.15 271.93-0.8 271.8-1.6 271.68-2.4 271.68-2.8L271.68-2.8Q271.68-3.5 271.77-4.48 271.88-5.45 272-6.53 272.13-7.6 272.27-8.5L272.27-8.5 273.13-13.7Q273.27-14.7 273.48-15.7 273.68-16.7 273.68-17.5L273.68-17.5Q273.68-18.1 273.43-18.4 273.18-18.7 272.77-18.7L272.77-18.7Q272.13-18.7 270.75-17.48 269.38-16.25 267.85-13.98 266.32-11.7 265.07-8.55 263.82-5.4 263.43-1.5L263.43-1.5 261.68-9.1Q263.18-13.45 265.07-16.4 266.98-19.35 268.98-21.13 270.98-22.9 272.82-23.7 274.68-24.5 276.13-24.5L276.13-24.5Q277.82-24.5 278.85-23.88 279.88-23.25 280.32-22.23 280.77-21.2 280.77-20.05L280.77-20.05Q280.77-18.75 280.6-17.6 280.43-16.45 280.23-15.15L280.23-15.15 277.82 0.5ZM257.82 0.7L257.82 0.7Q257.18 0.7 256.8 0.48 256.43 0.25 256.38-0.7 256.32-1.65 256.57-3.75L256.57-3.75 258.93-24.55 263.38-24.55Q264.52-24.55 265.1-23.45 265.68-22.35 265.68-20.95L265.68-20.95Q265.68-20.3 265.18-18.93 264.68-17.55 264.07-16.03 263.48-14.5 263.07-13.35L263.07-13.35 261.77-9.25 264.23-9.55 263.43-1.5Q263.38-0.9 262.63-0.45 261.88 0 260.85 0.25 259.82 0.5 258.98 0.6 258.13 0.7 257.82 0.7ZM292.52 0.8L292.52 0.8Q288.47 0.8 286.17-1.65 283.87-4.1 283.87-8.7L283.87-8.7Q283.87-13.2 285.75-16.8 287.62-20.4 290.85-22.48 294.07-24.55 298.17-24.55L298.17-24.55Q300.72-24.55 302.37-23.83 304.02-23.1 304.02-21.35L304.02-21.35Q304.02-20.6 303.67-19.65 303.32-18.7 302.82-18.05 302.32-17.4 301.72-17.4L301.72-17.4Q301.42-17.4 301.07-17.63 300.72-17.85 300.42-18.1L300.42-18.1Q299.92-18.55 299.15-19.15 298.37-19.75 297.42-20.2 296.47-20.65 295.52-20.65L295.52-20.65Q294.17-20.65 293.15-19.23 292.12-17.8 291.55-15.45 290.97-13.1 290.97-10.3L290.97-10.3Q290.97-7.25 291.87-5.83 292.77-4.4 294.62-4.4L294.62-4.4Q296.32-4.4 297.62-4.93 298.92-5.45 300.07-6.2L300.07-6.2Q300.52-6.5 300.92-6.7 301.32-6.9 301.62-6.9L301.62-6.9Q301.92-6.9 302.1-6.7 302.27-6.5 302.27-6.15L302.27-6.15Q302.27-5.25 301.57-4.05 300.87-2.85 299.55-1.75 298.22-0.65 296.47 0.08 294.72 0.8 292.52 0.8Z" opacity="1" transform="matrix(1,0,0,1,0,0)" fill="#5660ec" class="wordmark-text-0" data-fill-palette-color="primary" id="text-0"></path></svg></g></svg></g><g transform="matrix(1,0,0,1,0.5,60.20786259582184)"><svg viewBox="0 0 315.416 28.08899443413729" height="28.08899443413729" width="315.416"><g transform="matrix(1,0,0,1,0,0)"><svg width="315.416" viewBox="0.44999999999999996 -36.8 593.9 53.8" height="28.08899443413729" data-palette-color="#4752f7"><path d="M2.55-8.7L2.55-8.7 2.9-22.75Q2.9-26 2.75-28.1L2.75-28.1Q2.5-31.85 1.9-32.8L1.9-32.8 1.7-33.1Q1.45-33.3 1.45-33.6L1.45-33.6Q1.45-34.55 3.95-35.13 6.45-35.7 8.15-35.7 9.85-35.7 9.85-34.75L9.85-34.75 9.8-34.2Q9.1-29.25 8.95-22.48 8.8-15.7 8.8-13.6 8.8-11.5 8.95-10.1 9.1-8.7 9.13-8.47 9.15-8.25 9.38-7.63 9.6-7 9.95-6.5L9.95-6.5Q10.85-5.3 12.5-5.3 14.15-5.3 15.28-6.05 16.4-6.8 16.95-7.9L16.95-7.9Q18.1-10.25 18.35-11.95L18.35-11.95 18.45-12.7Q18.7-16.25 18.7-21.1 18.7-25.95 18.65-27.45 18.6-28.95 18.5-29.93 18.4-30.9 18.32-31.65 18.25-32.4 18.2-32.83 18.15-33.25 18.15-33.3L18.15-33.3Q18.15-33.85 18.7-34.2L18.7-34.2Q19.55-34.85 21.33-35.3 23.1-35.75 24.5-35.75 25.9-35.75 25.9-35.1L25.9-35.1Q25.9-35 25.65-33.45L25.65-33.45Q24.55-26.65 24.55-14.55L24.55-14.55Q24.55-5.6 25.75-1.8L25.75-1.8Q25.95-1.2 25.95-0.98 25.95-0.75 25.55-0.4L25.55-0.4Q24.05 0.75 21.58 0.75 19.1 0.75 18.9-0.5L18.9-0.5Q18.65-1.15 18.6-3.1L18.6-3.1 18.55-3.7Q18.55-4.15 18.35-4.15L18.35-4.15 17.8-3.8Q16.85-2.2 15.6-1.13 14.35-0.05 13.2 0.35L13.2 0.35Q11.55 0.95 9.98 0.95 8.4 0.95 6.83 0.13 5.25-0.7 4.48-1.8 3.7-2.9 3.2-4.4L3.2-4.4Q2.55-6.55 2.55-8.7ZM28.8 0.35L28.8 0.35Q29.7-5.05 29.7-12.6 29.7-20.15 29.25-22.4L29.25-22.4Q29.25-23.05 30.75-23.05L30.75-23.05Q33.05-23.05 33.8-21.3L33.8-21.3Q33.85-21.15 34.05-21.15 34.25-21.15 34.35-21.25L34.35-21.25Q35.9-22.85 39.15-22.85 42.4-22.85 44.3-21.2 46.2-19.55 46.2-16.4L46.2-16.4Q46.2-14.5 45.88-11 45.55-7.5 45.55-5.8L45.55-5.8Q45.55-1.75 46.9 0.05L46.9 0.05Q47.1 0.3 47.1 0.55L47.1 0.55Q47.1 1.2 45.7 1.2L45.7 1.2Q39.5 1.2 39.5-4.3L39.5-4.3Q39.5-6.4 40.45-10.15 41.4-13.9 41.4-15.85L41.4-15.85Q41.4-19.85 38.1-19.85L38.1-19.85Q36.5-19.85 35.68-18.9 34.85-17.95 34.75-16.73 34.65-15.5 34.65-12.1L34.65-12.1Q34.65-6.9 35-3.05L35-3.05 35.1-1.95Q35.1-0.55 33.28 0.23 31.45 1 30.13 1 28.8 1 28.8 0.35ZM53.9-26.75L53.9-26.75 52.7-26.8Q51.35-26.8 50.95-26.15L50.95-26.15Q50.85-26 50.7-26L50.7-26Q50.05-26 50.05-28.23 50.05-30.45 50.73-31.05 51.4-31.65 53.08-31.65 54.75-31.65 55.35-31.08 55.95-30.5 55.95-29.15 55.95-27.8 55.5-27.28 55.05-26.75 53.9-26.75ZM49.9-1.5L49.9-1.5 50.45-13.15Q50.45-17.3 49.5-18.8L49.5-18.8Q49.2-19.3 48.8-19.55L48.8-19.55Q48.5-19.65 48.5-19.95L48.5-19.95Q48.5-20.85 51.05-21.7 53.6-22.55 54.78-22.55 55.95-22.55 56-21.95L56-21.95Q56-20.95 55.73-16.28 55.45-11.6 55.45-6.45 55.45-1.3 56.05-0.05L56.05-0.05Q56.2 0.2 56.2 0.45L56.2 0.45Q56.2 1.1 54.3 1.1 52.4 1.1 50.4 0.1L50.4 0.1Q49.9-0.15 49.9-1.5ZM58.5-19.5L58.5-19.5 58.65-21.5Q58.7-21.95 59.35-21.95L59.35-21.95 61.1-21.95 60.9-25.95 60.9-26.15Q60.9-27.3 62.65-28.35 64.4-29.4 65.85-29.4L65.85-29.4Q66.3-29.4 66.3-29L66.3-29 66.3-28.95Q66.1-27.6 65.9-22L65.9-22Q68.1-22 68.7-22.1 69.3-22.2 69.35-22.2L69.35-22.2Q69.7-22.2 69.7-21.6 69.7-21 69.15-20.08 68.6-19.15 67.95-19.1L67.95-19.1 65.85-19.1Q65.8-17.4 65.8-13.38 65.8-9.35 65.88-6.75 65.95-4.15 66.05-2.83 66.15-1.5 66.28-0.7 66.4 0.1 66.48 0.45 66.55 0.8 66.55 0.9L66.55 0.9Q66.55 1.4 65.9 1.45L65.9 1.45Q63.95 1.45 62.03 0.9 60.1 0.35 60.1-1L60.1-1Q61.15-9.4 61.15-19.05L61.15-19.05Q59.8-19.05 59.1-18.95L59.1-18.95 59.05-18.95Q58.6-18.95 58.5-19.5ZM75.6-26.75L75.6-26.75 74.4-26.8Q73.05-26.8 72.65-26.15L72.65-26.15Q72.55-26 72.4-26L72.4-26Q71.75-26 71.75-28.23 71.75-30.45 72.42-31.05 73.1-31.65 74.78-31.65 76.45-31.65 77.05-31.08 77.65-30.5 77.65-29.15 77.65-27.8 77.2-27.28 76.75-26.75 75.6-26.75ZM71.6-1.5L71.6-1.5 72.15-13.15Q72.15-17.3 71.2-18.8L71.2-18.8Q70.9-19.3 70.5-19.55L70.5-19.55Q70.2-19.65 70.2-19.95L70.2-19.95Q70.2-20.85 72.75-21.7 75.3-22.55 76.48-22.55 77.65-22.55 77.7-21.95L77.7-21.95Q77.7-20.95 77.42-16.28 77.15-11.6 77.15-6.45 77.15-1.3 77.75-0.05L77.75-0.05Q77.9 0.2 77.9 0.45L77.9 0.45Q77.9 1.1 76 1.1 74.1 1.1 72.1 0.1L72.1 0.1Q71.6-0.15 71.6-1.5ZM80.95 0.35L80.95 0.35Q81.85-5.05 81.85-12.6 81.85-20.15 81.4-22.4L81.4-22.4Q81.4-23.05 82.9-23.05L82.9-23.05Q85.2-23.05 85.95-21.3L85.95-21.3Q86-21.15 86.2-21.15 86.4-21.15 86.5-21.25L86.5-21.25Q88.05-22.85 91.3-22.85 94.55-22.85 96.45-21.2 98.35-19.55 98.35-16.4L98.35-16.4Q98.35-14.5 98.03-11 97.7-7.5 97.7-5.8L97.7-5.8Q97.7-1.75 99.05 0.05L99.05 0.05Q99.25 0.3 99.25 0.55L99.25 0.55Q99.25 1.2 97.85 1.2L97.85 1.2Q91.65 1.2 91.65-4.3L91.65-4.3Q91.65-6.4 92.6-10.15 93.55-13.9 93.55-15.85L93.55-15.85Q93.55-19.85 90.25-19.85L90.25-19.85Q88.65-19.85 87.83-18.9 87-17.95 86.9-16.73 86.8-15.5 86.8-12.1L86.8-12.1Q86.8-6.9 87.15-3.05L87.15-3.05 87.25-1.95Q87.25-0.55 85.42 0.23 83.6 1 82.28 1 80.95 1 80.95 0.35ZM104.2-20.18Q105.3-21.3 107.1-22.08 108.9-22.85 110.55-22.85 112.2-22.85 113.9-22.1L113.9-22.1Q114.1-22.1 114.2-22.2L114.2-22.2Q115.5-23.5 118-23.5L118-23.5Q118.6-23.5 118.6-22.95L118.6-22.95Q118.6-22.9 118.5-22.5 118.4-22.1 118.25-21.33 118.1-20.55 118-19.45L118-19.45Q117.65-16.6 117.63-13.15 117.6-9.7 117.6-6.25L117.6-6.25 117.75 4.25Q117.75 9.3 115.15 12.65L115.15 12.65Q114.1 14 111.98 15 109.85 16 107 16L107 16Q106.35 15.6 106.35 15.2 106.35 14.8 106.9 14.55L106.9 14.55Q110.05 13.1 111.4 7.68 112.75 2.25 112.75-8.8L112.75-8.8 112.65-15.8 112.5-19.2Q112.5-19.65 111.1-19.85L111.1-19.85Q109.3-19.85 108.08-18.68 106.85-17.5 106.4-15.6L106.4-15.6Q105.6-12.55 105.6-10.33 105.6-8.1 106.33-6.4 107.05-4.7 108.85-4.7L108.85-4.7Q109.35-4.7 109.78-4.9 110.2-5.1 110.35-5.1L110.35-5.1Q110.85-5.1 110.85-4.1 110.85-3.1 110.7-2.48 110.55-1.85 110.1-1.1L110.1-1.1Q109.1 0.55 106.2 0.55L106.2 0.55Q103.3 0.55 102.05-1.55L102.05-1.55Q100.75-3.7 100.55-5.4L100.55-5.4Q100.25-7.95 100.25-8.75 100.25-9.55 100.28-10.03 100.3-10.5 100.53-11.93 100.75-13.35 101.13-14.63 101.5-15.9 102.3-17.48 103.1-19.05 104.2-20.18ZM138.25-22.15L138.25-22.15 138.25-21.45 147.1-21.45 147.1-21.55Q147.15-22.75 147.15-24.58 147.15-26.4 147.1-27.78 147.05-29.15 147-30.1 146.95-31.05 146.88-31.75 146.8-32.45 146.75-32.83 146.7-33.2 146.7-33.5 146.7-33.8 147.25-34.2L147.25-34.2Q149.65-35.8 152.6-35.8L152.6-35.8Q154.45-35.8 154.45-35.15L154.45-35.15Q154.45-35.1 154.35-34.6L154.35-34.6Q153.4-29.85 153.15-21.45L153.15-21.45Q153-13.05 153-12.45L153-12.45Q153-4.7 153.9-1.7L153.9-1.7Q154.05-1.3 154.05-1.03 154.05-0.75 153.65-0.4L153.65-0.4Q151.8 0.8 148.85 0.8L148.85 0.8Q146.95 0.8 146.7-0.5L146.7-0.5Q146.55-1.2 146.55-2.68 146.55-4.15 146.73-7.2 146.9-10.25 147-17.85L147-17.85 138.25-17.85Q138.25-6.45 138.95-1.85L138.95-1.85Q138.95-0.65 136.65 0.13 134.35 0.9 132.85 0.9 131.35 0.9 131.35 0.45L131.35 0.45Q131.35 0.15 131.5-0.3L131.5-0.3Q132.45-2.4 132.45-17.2L132.45-17.2 132.45-17.85 129.5-17.85Q129.1-17.85 129.1-18.15L129.1-18.15Q129.1-18.25 129.3-18.93 129.5-19.6 130.23-20.5 130.95-21.4 131.85-21.4L131.85-21.4 132.4-21.4Q132.4-31.25 131.25-32.75L131.25-32.75 131.05-33.05Q130.75-33.3 130.75-33.68 130.75-34.05 131.3-34.3L131.3-34.3Q132.05-34.75 133.98-35.2 135.9-35.65 137.45-35.65 139-35.65 139-34.95L139-34.95 139-34.8Q138.4-29.6 138.25-22.15ZM162.05-12.7L162.05-12.7 162.1-11.45Q162.1-11.15 162.5-11.15L162.5-11.15Q164.1-11.3 165.3-11.98 166.5-12.65 167.1-13.5L167.1-13.5Q168.3-15.35 168.4-16.7L168.4-16.7 168.45-17.3Q168.45-20 166.3-20L166.3-20Q164.7-20 163.7-18.6L163.7-18.6Q162.05-16.4 162.05-12.7ZM172.95-6.05L172.95-6.05Q172.95-4.15 172.18-2.73 171.4-1.3 170.43-0.63 169.45 0.05 168.15 0.45L168.15 0.45Q166.5 0.95 165 0.95L165 0.95Q160.8 0.95 158.8-2.2 156.8-5.35 156.8-10.23 156.8-15.1 159.28-18.9 161.75-22.7 166.7-22.7L166.7-22.7Q171.2-22.7 172.8-19.55L172.8-19.55Q173.45-18.35 173.45-17.28 173.45-16.2 173.35-15.58 173.25-14.95 172.65-13.7 172.05-12.45 171.05-11.45 170.05-10.45 167.9-9.55 165.75-8.65 162.85-8.35L162.85-8.35Q162.45-8.35 162.45-8L162.45-8Q162.45-7.55 162.78-6.68 163.1-5.8 163.5-5.2L163.5-5.2Q164.6-3.8 166.75-3.8L166.75-3.8Q168.9-3.8 170.4-5.2L170.4-5.2Q171.2-5.95 171.7-7.05L171.7-7.05Q171.9-7.45 172.23-7.45 172.55-7.45 172.75-6.9 172.95-6.35 172.95-6.05ZM191.7-15L191.7-15 191.6-8.6Q191.6-1.95 193.05-0.6L193.05-0.6Q193.25-0.4 193.25-0.15L193.25-0.15Q193.25 0.6 190.03 0.6 186.8 0.6 186.6-1.3L186.6-1.3Q186.55-1.75 186.55-3.15L186.55-3.15 186.75-11.15Q186.75-11.5 186.35-11.5L186.35-11.5Q183.95-11.5 181.85-10.15 179.75-8.8 179.75-6.7L179.75-6.7Q179.75-5.6 180.35-4.85 180.95-4.1 181.83-4.1 182.7-4.1 183.28-4.45 183.85-4.8 183.95-4.85L183.95-4.85Q184.8-4.75 184.8-3.08 184.8-1.4 183.25-0.38 181.7 0.65 180 0.65 178.3 0.65 177.08 0.05 175.85-0.55 175.3-1.3 174.75-2.05 174.4-3L174.4-3Q174.05-4.15 174.05-5L174.05-5Q174.05-8.5 176.25-10.6 178.45-12.7 181.9-13.6L181.9-13.6Q186.45-14.5 186.65-15.25L186.65-15.25Q186.8-15.8 186.8-17.1L186.8-17.1Q186.8-19.75 184.1-19.75L184.1-19.75Q182.95-19.75 182.05-19.03 181.15-18.3 181.15-17.2L181.15-17.2 181.45-16Q181.35-15.15 179.65-15L179.65-15 179.1-14.95Q177.6-14.95 176.73-15.7 175.85-16.45 175.85-17.7L175.85-17.7Q175.85-18.5 176.38-19.48 176.9-20.45 177.7-21.05 178.5-21.65 180.18-22.13 181.85-22.6 183.4-22.6 184.95-22.6 185.8-22.5 186.65-22.4 188.13-22.03 189.6-21.65 190.58-20.6 191.55-19.55 191.63-18.38 191.7-17.2 191.7-15ZM210.25-17.2L210-13.4 210.2-11.65Q210.2-10.7 208.4-10.7L208.4-10.7Q204.75-10.7 204.75-13.45L204.75-13.45Q204.75-14.1 205.1-15.25 205.45-16.4 205.45-17.25 205.45-18.1 204.95-18.73 204.45-19.35 203.5-19.35 202.55-19.35 201.88-18.68 201.2-18 201.05-17.3L201.05-17.3 200.85-16.6Q200.55-15.05 200.55-11.43 200.55-7.8 200.65-5.73 200.75-3.65 200.85-2.88 200.95-2.1 200.95-1.95L200.95-1.95Q200.95-0.7 199.4 0.08 197.85 0.85 196.3 0.85 194.75 0.85 194.75 0.2L194.75 0.2 195-1.35Q195.7-5.7 195.7-12.7 195.7-19.7 195.2-22.2L195.2-22.2Q195.2-22.8 196.25-22.8L196.25-22.8Q198.95-22.8 199.85-20.95L199.85-20.95Q199.9-20.75 200.03-20.75 200.15-20.75 200.7-21.2L200.7-21.2Q202.35-22.55 204.6-22.55L204.6-22.55Q206-22.55 207.4-22L207.4-22Q210.25-20.85 210.25-17.2L210.25-17.2ZM211.75-19.5L211.75-19.5 211.9-21.5Q211.95-21.95 212.6-21.95L212.6-21.95 214.35-21.95 214.15-25.95 214.15-26.15Q214.15-27.3 215.9-28.35 217.65-29.4 219.1-29.4L219.1-29.4Q219.55-29.4 219.55-29L219.55-29 219.55-28.95Q219.35-27.6 219.15-22L219.15-22Q221.35-22 221.95-22.1 222.55-22.2 222.6-22.2L222.6-22.2Q222.95-22.2 222.95-21.6 222.95-21 222.4-20.08 221.85-19.15 221.2-19.1L221.2-19.1 219.1-19.1Q219.05-17.4 219.05-13.38 219.05-9.35 219.13-6.75 219.2-4.15 219.3-2.83 219.4-1.5 219.53-0.7 219.65 0.1 219.73 0.45 219.8 0.8 219.8 0.9L219.8 0.9Q219.8 1.4 219.15 1.45L219.15 1.45Q217.2 1.45 215.28 0.9 213.35 0.35 213.35-1L213.35-1Q214.4-9.4 214.4-19.05L214.4-19.05Q213.05-19.05 212.35-18.95L212.35-18.95 212.3-18.95Q211.85-18.95 211.75-19.5ZM238.9-6.85L238.9-6.85Q238.9-4.7 238.08-3.1 237.25-1.5 236.2-0.75 235.15 0 233.7 0.45L233.7 0.45Q231.8 1.05 230.25 1.05L230.25 1.05Q227 1.05 224.85-0.23 222.7-1.5 222.7-4.3L222.7-4.3Q222.7-5.95 223.6-7L223.6-7Q225-8.55 226.95-8.55L226.95-8.55Q227.55-8.55 227.55-8L227.55-8Q227.55-7.95 227.33-7.23 227.1-6.5 227.1-5.4 227.1-4.3 227.98-3.45 228.85-2.6 230.1-2.6 231.35-2.6 232.1-3.03 232.85-3.45 233.15-4.1L233.15-4.1Q233.6-5 233.6-5.8L233.6-5.8Q233.6-7.25 232.15-8.3 230.7-9.35 228.95-9.95 227.2-10.55 225.75-11.95 224.3-13.35 224.3-15.45L224.3-15.45Q224.3-19.05 226.58-20.85 228.85-22.65 232.75-22.65L232.75-22.65Q234.45-22.65 236.33-22.18 238.2-21.7 238.2-20.58 238.2-19.45 237.83-18.5 237.45-17.55 236.9-17.55L236.9-17.55Q236.6-17.55 236.5-17.78 236.4-18 236.15-18.3 235.9-18.6 234.95-19.07 234-19.55 233.33-19.55 232.65-19.55 232.43-19.53 232.2-19.5 231.65-19.38 231.1-19.25 230.65-19L230.65-19Q229.5-18.35 229.5-17.1L229.5-17.1Q229.5-16.3 229.85-15.93 230.2-15.55 230.4-15.35 230.6-15.15 231.1-14.88 231.6-14.6 231.8-14.5 232-14.4 232.7-14.08 233.4-13.75 233.6-13.65L233.6-13.65Q238.9-11.15 238.9-6.85ZM247.75-2.1L247.75-2.1Q247.75 0.65 246.47 2.65 245.2 4.65 243.65 4.95L243.65 4.95Q243.3 4.95 243.3 4.8L243.3 4.8 243.4 4.5Q244.55 3.35 244.8 1.55L244.8 1.55 244.85 0.95Q244.85 0.1 244.15 0L244.15 0 243.9 0Q242.75 0 242.33-0.5 241.9-1 241.9-2.3 241.9-3.6 242.47-4.23 243.05-4.85 244.7-4.85 246.35-4.85 247.05-4.23 247.75-3.6 247.75-2.1ZM268.1-22.5L268.1-22.5 268.15-16.25 267.95-7.6Q268-7.4 268.1-7.4 268.2-7.4 268.25-7.5L268.25-7.5Q269.25-8.9 270.73-8.9 272.2-8.9 272.2-8.3L272.2-8.3Q272.2-6.4 272.93-5.38 273.65-4.35 274.98-4.35 276.3-4.35 277.52-6.15 278.75-7.95 278.75-10.95L278.75-10.95Q278.75-11.95 278.35-13.35L278.35-13.35Q277.55-16.15 275.35-17.1L275.35-17.1Q273.75-17.75 270.15-17.75L270.15-17.75Q269.75-17.75 269.75-18.3L269.75-18.3Q269.75-21.1 270.75-21.2L270.75-21.2Q272.1-21.2 273.6-21.9L273.6-21.9Q276.6-23.3 276.6-27.65L276.6-27.65Q276.6-32.35 271.2-32.35L271.2-32.35 269.65-32.25Q268.75-32.05 268.65-31.5L268.65-31.5 268.65-31.35Q268.1-29.35 268.1-22.5ZM260.75 0.7L260.75 0.7 260.85 0.15Q261.35-0.75 261.7-7.18 262.05-13.6 262.05-19.18 262.05-24.75 261.82-28.13 261.6-31.5 260.6-33L260.6-33Q260.4-33.25 260.4-33.6 260.4-33.95 261-34.2L261-34.2Q265.1-35.8 272.15-35.8L272.15-35.8Q273.9-35.8 275.95-35.33 278-34.85 279.32-34.15 280.65-33.45 281.73-32 282.8-30.55 282.95-28.55L282.95-28.55Q282.95-21.3 276.95-20.2L276.95-20.2Q276.65-20.1 276.65-19.98 276.65-19.85 276.9-19.7L276.9-19.7Q280-19.2 282.1-17.2L282.1-17.2Q283.15-16.25 284-14.25 284.85-12.25 284.85-9.65L284.85-9.65Q284.85-6.3 282.9-3.3L282.9-3.3Q281.3-0.85 278.25 0.2L278.25 0.2Q276.55 0.8 274.45 0.8L274.45 0.8Q269.2 0.8 267.8-2.55L267.8-2.55Q267.75-2.7 267.65-2.7L267.65-2.7 267.45-2.5Q266.4 1 261.45 1.15L261.45 1.15Q260.75 1.15 260.75 0.7ZM291.55-12.7L291.55-12.7 291.6-11.45Q291.6-11.15 292-11.15L292-11.15Q293.6-11.3 294.8-11.98 296-12.65 296.6-13.5L296.6-13.5Q297.8-15.35 297.9-16.7L297.9-16.7 297.95-17.3Q297.95-20 295.8-20L295.8-20Q294.2-20 293.2-18.6L293.2-18.6Q291.55-16.4 291.55-12.7ZM302.45-6.05L302.45-6.05Q302.45-4.15 301.68-2.73 300.9-1.3 299.93-0.63 298.95 0.05 297.65 0.45L297.65 0.45Q296 0.95 294.5 0.95L294.5 0.95Q290.3 0.95 288.3-2.2 286.3-5.35 286.3-10.23 286.3-15.1 288.78-18.9 291.25-22.7 296.2-22.7L296.2-22.7Q300.7-22.7 302.3-19.55L302.3-19.55Q302.95-18.35 302.95-17.28 302.95-16.2 302.85-15.58 302.75-14.95 302.15-13.7 301.55-12.45 300.55-11.45 299.55-10.45 297.4-9.55 295.25-8.65 292.35-8.35L292.35-8.35Q291.95-8.35 291.95-8L291.95-8Q291.95-7.55 292.28-6.68 292.6-5.8 293-5.2L293-5.2Q294.1-3.8 296.25-3.8L296.25-3.8Q298.4-3.8 299.9-5.2L299.9-5.2Q300.7-5.95 301.2-7.05L301.2-7.05Q301.4-7.45 301.73-7.45 302.05-7.45 302.25-6.9 302.45-6.35 302.45-6.05ZM314.05 13.85L314.05 13.85Q314.05 14.45 313.45 14.45L313.45 14.45 313.4 14.45Q311.75 14.45 309.68 13.3 307.6 12.15 307.6 10.65 307.6 9.15 309.5 5.43 311.4 1.7 311.4 0.45L311.4 0.45Q311.4-0.9 310.1-4.4L310.1-4.4Q308.45-8.95 307.47-11.8 306.5-14.65 305.38-16.82 304.25-19 303.75-19.4L303.75-19.4 303.25-19.75Q302.7-20.05 302.7-20.4L302.7-20.4Q302.7-21.1 304.88-21.83 307.05-22.55 308.7-22.55L308.7-22.55Q309.45-22.55 309.95-21.35L309.95-21.35Q310.85-19 311.9-14.85L311.9-14.85Q314.45-6.35 315.1-6.35L315.1-6.35Q315.55-6.35 316.93-9.85 318.3-13.35 318.3-15.5L318.3-15.5Q318.3-19.25 316.1-19.9L316.1-19.9Q315.6-20 315.6-20.4L315.6-20.4Q315.6-21.3 317.95-22.13 320.3-22.95 322.2-22.95L322.2-22.95Q323.85-22.95 323.85-20.8L323.85-20.8Q323.85-19.15 323.15-16.95 322.45-14.75 321.85-13.48 321.25-12.2 318.88-7.58 316.5-2.95 314.95 0.55L314.95 0.55Q313.25 4.75 313.25 9.1L313.25 9.1Q313.25 11.4 313.65 12.55 314.05 13.7 314.05 13.85ZM328.55-18.85L328.55-18.85Q327.25-18.8 326.67-18.78 326.1-18.75 326.1-19.05 326.1-19.35 326.4-19.65L326.4-19.65Q329.6-22.6 337.2-22.6L337.2-22.6Q339.8-22.6 341.3-22.15L341.3-22.15 341.8-22Q342.4-21.75 342.4-21.45L342.4-21.45Q342.4-21.2 342.05-21.05L342.05-21.05Q340.7-20.65 339.45-19.78 338.2-18.9 338.2-18.55L338.2-18.55 338.5-18.2Q340.1-17.3 340.97-15.35 341.85-13.4 341.95-11.9L341.95-11.9 342.05-10.35Q342.05-5.4 339.3-2.2 336.55 1 331.8 1L331.8 1Q329.4 1 327.65 0.15 325.9-0.7 325.07-1.78 324.25-2.85 323.75-4.2L323.75-4.2Q323.15-6.05 323.15-8.03 323.15-10 323.82-12 324.5-14 325.38-14.95 326.25-15.9 327.35-16.5L327.35-16.5Q328.75-17.25 329.6-17.25 330.45-17.25 330.45-16.9L330.45-16.9 330.15-16.4Q329.05-15.1 328.57-13 328.1-10.9 328.1-9.28 328.1-7.65 328.5-6.05 328.9-4.45 329.4-3.68 329.9-2.9 330.55-2.5L330.55-2.5Q331.5-1.9 332.55-1.9 333.6-1.9 334.6-2.73 335.6-3.55 336.05-4.9L336.05-4.9Q336.95-7.4 336.95-10.05L336.95-10.05Q336.95-14.25 334.82-16.55 332.7-18.85 328.55-18.85ZM344.5 0.35L344.5 0.35Q345.4-5.05 345.4-12.6 345.4-20.15 344.95-22.4L344.95-22.4Q344.95-23.05 346.45-23.05L346.45-23.05Q348.75-23.05 349.5-21.3L349.5-21.3Q349.55-21.15 349.75-21.15 349.95-21.15 350.05-21.25L350.05-21.25Q351.6-22.85 354.85-22.85 358.1-22.85 360-21.2 361.9-19.55 361.9-16.4L361.9-16.4Q361.9-14.5 361.57-11 361.25-7.5 361.25-5.8L361.25-5.8Q361.25-1.75 362.6 0.05L362.6 0.05Q362.8 0.3 362.8 0.55L362.8 0.55Q362.8 1.2 361.4 1.2L361.4 1.2Q355.2 1.2 355.2-4.3L355.2-4.3Q355.2-6.4 356.15-10.15 357.1-13.9 357.1-15.85L357.1-15.85Q357.1-19.85 353.8-19.85L353.8-19.85Q352.2-19.85 351.38-18.9 350.55-17.95 350.45-16.73 350.35-15.5 350.35-12.1L350.35-12.1Q350.35-6.9 350.7-3.05L350.7-3.05 350.8-1.95Q350.8-0.55 348.98 0.23 347.15 1 345.82 1 344.5 1 344.5 0.35ZM374.45-22.45L374.45-22.45Q375.35-22.45 376.07-22.23 376.8-22 376.85-22L376.85-22 377.15-22.25 376.95-27.7Q376.85-29.1 376.35-30.1 375.85-31.1 375.45-31.4L375.45-31.4 375-31.65Q374.7-31.85 374.7-32.1L374.7-32.1Q374.7-32.85 377.02-33.85 379.35-34.85 380.65-34.85 381.95-34.85 382.05-34.3L382.05-34.3Q382.3-32.6 382.3-27.83 382.3-23.05 382.07-18.45 381.85-13.85 381.85-8.03 381.85-2.2 382.6-0.7L382.6-0.7Q382.8-0.35 382.8-0.05L382.8-0.05Q382.8 0.7 380.65 0.7L380.65 0.7Q376.55 0.7 376.55-1.25L376.55-1.25Q376.45-2.05 376.45-3.73 376.45-5.4 376.77-9.98 377.1-14.55 377.1-17.03 377.1-19.5 374.63-19.5 372.15-19.5 370.85-16.6 369.55-13.7 369.55-10.8L369.55-10.8Q369.55-4.65 372.65-4.65L372.65-4.65Q373.1-4.65 373.52-4.83 373.95-5 374.05-5L374.05-5Q374.45-5 374.68-4.5 374.9-4 374.9-3.5L374.9-3.5Q374.9-1.8 373.55-0.63 372.2 0.55 370.25 0.55L370.25 0.55Q367.25 0.55 365.72-2.08 364.2-4.7 364.2-8.6L364.2-8.6Q364.2-13.55 366.55-17.8L366.55-17.8Q367.75-19.9 369.8-21.18 371.85-22.45 374.45-22.45ZM401.4-22.5L401.4-22.5 401.45-16.25 401.25-7.6Q401.3-7.4 401.4-7.4 401.5-7.4 401.55-7.5L401.55-7.5Q402.55-8.9 404.03-8.9 405.5-8.9 405.5-8.3L405.5-8.3Q405.5-6.4 406.23-5.38 406.95-4.35 408.28-4.35 409.6-4.35 410.82-6.15 412.05-7.95 412.05-10.95L412.05-10.95Q412.05-11.95 411.65-13.35L411.65-13.35Q410.85-16.15 408.65-17.1L408.65-17.1Q407.05-17.75 403.45-17.75L403.45-17.75Q403.05-17.75 403.05-18.3L403.05-18.3Q403.05-21.1 404.05-21.2L404.05-21.2Q405.4-21.2 406.9-21.9L406.9-21.9Q409.9-23.3 409.9-27.65L409.9-27.65Q409.9-32.35 404.5-32.35L404.5-32.35 402.95-32.25Q402.05-32.05 401.95-31.5L401.95-31.5 401.95-31.35Q401.4-29.35 401.4-22.5ZM394.05 0.7L394.05 0.7 394.15 0.15Q394.65-0.75 395-7.18 395.35-13.6 395.35-19.18 395.35-24.75 395.13-28.13 394.9-31.5 393.9-33L393.9-33Q393.7-33.25 393.7-33.6 393.7-33.95 394.3-34.2L394.3-34.2Q398.4-35.8 405.45-35.8L405.45-35.8Q407.2-35.8 409.25-35.33 411.3-34.85 412.63-34.15 413.95-33.45 415.03-32 416.1-30.55 416.25-28.55L416.25-28.55Q416.25-21.3 410.25-20.2L410.25-20.2Q409.95-20.1 409.95-19.98 409.95-19.85 410.2-19.7L410.2-19.7Q413.3-19.2 415.4-17.2L415.4-17.2Q416.45-16.25 417.3-14.25 418.15-12.25 418.15-9.65L418.15-9.65Q418.15-6.3 416.2-3.3L416.2-3.3Q414.6-0.85 411.55 0.2L411.55 0.2Q409.85 0.8 407.75 0.8L407.75 0.8Q402.5 0.8 401.1-2.55L401.1-2.55Q401.05-2.7 400.95-2.7L400.95-2.7 400.75-2.5Q399.7 1 394.75 1.15L394.75 1.15Q394.05 1.15 394.05 0.7ZM425-18.85L425-18.85Q423.7-18.8 423.13-18.78 422.55-18.75 422.55-19.05 422.55-19.35 422.85-19.65L422.85-19.65Q426.05-22.6 433.65-22.6L433.65-22.6Q436.25-22.6 437.75-22.15L437.75-22.15 438.25-22Q438.85-21.75 438.85-21.45L438.85-21.45Q438.85-21.2 438.5-21.05L438.5-21.05Q437.15-20.65 435.9-19.78 434.65-18.9 434.65-18.55L434.65-18.55 434.95-18.2Q436.55-17.3 437.43-15.35 438.3-13.4 438.4-11.9L438.4-11.9 438.5-10.35Q438.5-5.4 435.75-2.2 433 1 428.25 1L428.25 1Q425.85 1 424.1 0.15 422.35-0.7 421.53-1.78 420.7-2.85 420.2-4.2L420.2-4.2Q419.6-6.05 419.6-8.03 419.6-10 420.28-12 420.95-14 421.83-14.95 422.7-15.9 423.8-16.5L423.8-16.5Q425.2-17.25 426.05-17.25 426.9-17.25 426.9-16.9L426.9-16.9 426.6-16.4Q425.5-15.1 425.03-13 424.55-10.9 424.55-9.28 424.55-7.65 424.95-6.05 425.35-4.45 425.85-3.68 426.35-2.9 427-2.5L427-2.5Q427.95-1.9 429-1.9 430.05-1.9 431.05-2.73 432.05-3.55 432.5-4.9L432.5-4.9Q433.4-7.4 433.4-10.05L433.4-10.05Q433.4-14.25 431.28-16.55 429.15-18.85 425-18.85ZM458.8-22.25L458.8-22.25Q457.9-16.85 457.9-8.5L457.9-8.5Q457.9-2.35 458.4-0.4L458.4-0.4 458.6 0.25Q458.6 0.9 457.5 0.9L457.5 0.9Q453.65 0.9 453.1-1.25L453.1-1.25Q453.05-1.5 452.88-1.5 452.7-1.5 452.55-1.3L452.55-1.3Q451 0.75 447.75 0.75L447.75 0.75Q445.95 0.75 444-0.15L444-0.15Q442.8-0.7 442.05-2.08 441.3-3.45 441.3-5.45L441.3-5.45 442.05-16.4Q442.05-19.85 441.35-21.3L441.35-21.3Q441.1-21.85 441.1-22L441.1-22Q441.1-22.3 441.35-22.4L441.35-22.4Q442.15-22.65 443.4-22.65L443.4-22.65Q448.25-22.65 448.25-18.65L448.25-18.65Q448.25-17.4 447.23-12.95 446.2-8.5 446.2-6.63 446.2-4.75 447.03-3.75 447.85-2.75 449.33-2.75 450.8-2.75 451.65-3.8 452.5-4.85 452.65-5.9L452.65-5.9 452.8-6.95Q453-8.7 453-13.1 453-17.5 452.73-18.68 452.45-19.85 452.45-20.15L452.45-20.15Q452.45-21.4 454.45-22.13 456.45-22.85 458.05-22.85L458.05-22.85Q458.8-22.85 458.8-22.25ZM461.2 0.35L461.2 0.35Q462.1-5.05 462.1-12.6 462.1-20.15 461.65-22.4L461.65-22.4Q461.65-23.05 463.15-23.05L463.15-23.05Q465.45-23.05 466.2-21.3L466.2-21.3Q466.25-21.15 466.45-21.15 466.65-21.15 466.75-21.25L466.75-21.25Q468.3-22.85 471.55-22.85 474.8-22.85 476.7-21.2 478.6-19.55 478.6-16.4L478.6-16.4Q478.6-14.5 478.28-11 477.95-7.5 477.95-5.8L477.95-5.8Q477.95-1.75 479.3 0.05L479.3 0.05Q479.5 0.3 479.5 0.55L479.5 0.55Q479.5 1.2 478.1 1.2L478.1 1.2Q471.9 1.2 471.9-4.3L471.9-4.3Q471.9-6.4 472.85-10.15 473.8-13.9 473.8-15.85L473.8-15.85Q473.8-19.85 470.5-19.85L470.5-19.85Q468.9-19.85 468.08-18.9 467.25-17.95 467.15-16.73 467.05-15.5 467.05-12.1L467.05-12.1Q467.05-6.9 467.4-3.05L467.4-3.05 467.5-1.95Q467.5-0.55 465.68 0.23 463.85 1 462.53 1 461.2 1 461.2 0.35ZM491.15-22.45L491.15-22.45Q492.05-22.45 492.78-22.23 493.5-22 493.55-22L493.55-22 493.85-22.25 493.65-27.7Q493.55-29.1 493.05-30.1 492.55-31.1 492.15-31.4L492.15-31.4 491.7-31.65Q491.4-31.85 491.4-32.1L491.4-32.1Q491.4-32.85 493.73-33.85 496.05-34.85 497.35-34.85 498.65-34.85 498.75-34.3L498.75-34.3Q499-32.6 499-27.83 499-23.05 498.78-18.45 498.55-13.85 498.55-8.03 498.55-2.2 499.3-0.7L499.3-0.7Q499.5-0.35 499.5-0.05L499.5-0.05Q499.5 0.7 497.35 0.7L497.35 0.7Q493.25 0.7 493.25-1.25L493.25-1.25Q493.15-2.05 493.15-3.73 493.15-5.4 493.48-9.98 493.8-14.55 493.8-17.03 493.8-19.5 491.33-19.5 488.85-19.5 487.55-16.6 486.25-13.7 486.25-10.8L486.25-10.8Q486.25-4.65 489.35-4.65L489.35-4.65Q489.8-4.65 490.23-4.83 490.65-5 490.75-5L490.75-5Q491.15-5 491.38-4.5 491.6-4 491.6-3.5L491.6-3.5Q491.6-1.8 490.25-0.63 488.9 0.55 486.95 0.55L486.95 0.55Q483.95 0.55 482.43-2.08 480.9-4.7 480.9-8.6L480.9-8.6Q480.9-13.55 483.25-17.8L483.25-17.8Q484.45-19.9 486.5-21.18 488.55-22.45 491.15-22.45ZM518.45-15L518.45-15 518.35-8.6Q518.35-1.95 519.8-0.6L519.8-0.6Q520-0.4 520-0.15L520-0.15Q520 0.6 516.78 0.6 513.55 0.6 513.35-1.3L513.35-1.3Q513.3-1.75 513.3-3.15L513.3-3.15 513.5-11.15Q513.5-11.5 513.1-11.5L513.1-11.5Q510.7-11.5 508.6-10.15 506.5-8.8 506.5-6.7L506.5-6.7Q506.5-5.6 507.1-4.85 507.7-4.1 508.58-4.1 509.45-4.1 510.03-4.45 510.6-4.8 510.7-4.85L510.7-4.85Q511.55-4.75 511.55-3.08 511.55-1.4 510-0.38 508.45 0.65 506.75 0.65 505.05 0.65 503.83 0.05 502.6-0.55 502.05-1.3 501.5-2.05 501.15-3L501.15-3Q500.8-4.15 500.8-5L500.8-5Q500.8-8.5 503-10.6 505.2-12.7 508.65-13.6L508.65-13.6Q513.2-14.5 513.4-15.25L513.4-15.25Q513.55-15.8 513.55-17.1L513.55-17.1Q513.55-19.75 510.85-19.75L510.85-19.75Q509.7-19.75 508.8-19.03 507.9-18.3 507.9-17.2L507.9-17.2 508.2-16Q508.1-15.15 506.4-15L506.4-15 505.85-14.95Q504.35-14.95 503.48-15.7 502.6-16.45 502.6-17.7L502.6-17.7Q502.6-18.5 503.13-19.48 503.65-20.45 504.45-21.05 505.25-21.65 506.93-22.13 508.6-22.6 510.15-22.6 511.7-22.6 512.55-22.5 513.4-22.4 514.88-22.03 516.35-21.65 517.33-20.6 518.3-19.55 518.38-18.38 518.45-17.2 518.45-15ZM537-17.2L536.75-13.4 536.95-11.65Q536.95-10.7 535.15-10.7L535.15-10.7Q531.5-10.7 531.5-13.45L531.5-13.45Q531.5-14.1 531.85-15.25 532.2-16.4 532.2-17.25 532.2-18.1 531.7-18.73 531.2-19.35 530.25-19.35 529.3-19.35 528.63-18.68 527.95-18 527.8-17.3L527.8-17.3 527.6-16.6Q527.3-15.05 527.3-11.43 527.3-7.8 527.4-5.73 527.5-3.65 527.6-2.88 527.7-2.1 527.7-1.95L527.7-1.95Q527.7-0.7 526.15 0.08 524.6 0.85 523.05 0.85 521.5 0.85 521.5 0.2L521.5 0.2 521.75-1.35Q522.45-5.7 522.45-12.7 522.45-19.7 521.95-22.2L521.95-22.2Q521.95-22.8 523-22.8L523-22.8Q525.7-22.8 526.6-20.95L526.6-20.95Q526.65-20.75 526.77-20.75 526.9-20.75 527.45-21.2L527.45-21.2Q529.1-22.55 531.35-22.55L531.35-22.55Q532.75-22.55 534.15-22L534.15-22Q537-20.85 537-17.2L537-17.2ZM544.4-26.75L544.4-26.75 543.2-26.8Q541.85-26.8 541.45-26.15L541.45-26.15Q541.35-26 541.2-26L541.2-26Q540.55-26 540.55-28.23 540.55-30.45 541.23-31.05 541.9-31.65 543.58-31.65 545.25-31.65 545.85-31.08 546.45-30.5 546.45-29.15 546.45-27.8 546-27.28 545.55-26.75 544.4-26.75ZM540.4-1.5L540.4-1.5 540.95-13.15Q540.95-17.3 540-18.8L540-18.8Q539.7-19.3 539.3-19.55L539.3-19.55Q539-19.65 539-19.95L539-19.95Q539-20.85 541.55-21.7 544.1-22.55 545.27-22.55 546.45-22.55 546.5-21.95L546.5-21.95Q546.5-20.95 546.23-16.28 545.95-11.6 545.95-6.45 545.95-1.3 546.55-0.05L546.55-0.05Q546.7 0.2 546.7 0.45L546.7 0.45Q546.7 1.1 544.8 1.1 542.9 1.1 540.9 0.1L540.9 0.1Q540.4-0.15 540.4-1.5ZM554.5-12.7L554.5-12.7 554.55-11.45Q554.55-11.15 554.95-11.15L554.95-11.15Q556.55-11.3 557.75-11.98 558.95-12.65 559.55-13.5L559.55-13.5Q560.75-15.35 560.85-16.7L560.85-16.7 560.9-17.3Q560.9-20 558.75-20L558.75-20Q557.15-20 556.15-18.6L556.15-18.6Q554.5-16.4 554.5-12.7ZM565.4-6.05L565.4-6.05Q565.4-4.15 564.63-2.73 563.85-1.3 562.88-0.63 561.9 0.05 560.6 0.45L560.6 0.45Q558.95 0.95 557.45 0.95L557.45 0.95Q553.25 0.95 551.25-2.2 549.25-5.35 549.25-10.23 549.25-15.1 551.73-18.9 554.2-22.7 559.15-22.7L559.15-22.7Q563.65-22.7 565.25-19.55L565.25-19.55Q565.9-18.35 565.9-17.28 565.9-16.2 565.8-15.58 565.7-14.95 565.1-13.7 564.5-12.45 563.5-11.45 562.5-10.45 560.35-9.55 558.2-8.65 555.3-8.35L555.3-8.35Q554.9-8.35 554.9-8L554.9-8Q554.9-7.55 555.23-6.68 555.55-5.8 555.95-5.2L555.95-5.2Q557.05-3.8 559.2-3.8L559.2-3.8Q561.35-3.8 562.85-5.2L562.85-5.2Q563.65-5.95 564.15-7.05L564.15-7.05Q564.35-7.45 564.67-7.45 565-7.45 565.2-6.9 565.4-6.35 565.4-6.05ZM583.35-6.85L583.35-6.85Q583.35-4.7 582.52-3.1 581.7-1.5 580.65-0.75 579.6 0 578.15 0.45L578.15 0.45Q576.25 1.05 574.7 1.05L574.7 1.05Q571.45 1.05 569.3-0.23 567.15-1.5 567.15-4.3L567.15-4.3Q567.15-5.95 568.05-7L568.05-7Q569.45-8.55 571.4-8.55L571.4-8.55Q572-8.55 572-8L572-8Q572-7.95 571.77-7.23 571.55-6.5 571.55-5.4 571.55-4.3 572.42-3.45 573.3-2.6 574.55-2.6 575.8-2.6 576.55-3.03 577.3-3.45 577.6-4.1L577.6-4.1Q578.05-5 578.05-5.8L578.05-5.8Q578.05-7.25 576.6-8.3 575.15-9.35 573.4-9.95 571.65-10.55 570.2-11.95 568.75-13.35 568.75-15.45L568.75-15.45Q568.75-19.05 571.02-20.85 573.3-22.65 577.2-22.65L577.2-22.65Q578.9-22.65 580.77-22.18 582.65-21.7 582.65-20.58 582.65-19.45 582.27-18.5 581.9-17.55 581.35-17.55L581.35-17.55Q581.05-17.55 580.95-17.78 580.85-18 580.6-18.3 580.35-18.6 579.4-19.07 578.45-19.55 577.77-19.55 577.1-19.55 576.88-19.53 576.65-19.5 576.1-19.38 575.55-19.25 575.1-19L575.1-19Q573.95-18.35 573.95-17.1L573.95-17.1Q573.95-16.3 574.3-15.93 574.65-15.55 574.85-15.35 575.05-15.15 575.55-14.88 576.05-14.6 576.25-14.5 576.45-14.4 577.15-14.08 577.85-13.75 578.05-13.65L578.05-13.65Q583.35-11.15 583.35-6.85ZM589.4-4.25L589.4-4.25 590.6-4.3Q591.8-4.3 592.23-3.78 592.65-3.25 592.65-1.93 592.65-0.6 592.08 0.03 591.5 0.65 589.83 0.65 588.15 0.65 587.48 0 586.8-0.65 586.8-2.85 586.8-5.05 587.45-5.05L587.45-5.05 588-4.65Q588.55-4.25 589.4-4.25ZM586.45-32.75L586.45-32.75Q586.4-33 586.4-33.5 586.4-34 587.23-34.5 588.05-35 589.15-35.2L589.15-35.2Q591.05-35.6 592.2-35.6 593.35-35.6 593.35-34.6L593.35-34.6 593.25-34Q591.35-26.1 591.35-11.75L591.35-11.75Q591.35-10.15 591.4-9.68 591.45-9.2 591.4-9.05 591.35-8.9 590.88-8.63 590.4-8.35 589.6-8.35L589.6-8.35Q587.85-8.35 587.8-9.5L587.8-9.5Q587.8-27.25 586.45-32.75Z" opacity="1" transform="matrix(1,0,0,1,0,0)" fill="#4752f7" class="slogan-text-1" data-fill-palette-color="secondary" id="text-1"></path></svg></g></svg></g></svg></g></svg></g></svg></g></svg></g><g mask="url(#ad027bcc-eb97-490c-a9ce-ab0fa582f026)"><g transform="matrix(8.757142857142856, 0, 0, 8.757142857142856, 58.46888571428573, 1)"><svg xmlns="http://www.w3.org/2000/svg" xmlns:xlink="http://www.w3.org/1999/xlink" version="1.1" x="0" y="0" viewBox="0.094 2 31.811999999999998 28" enable-background="new 0 0 32 32" xml:space="preserve" height="28" width="31.811999999999998" class="icon-none" data-fill-palette-color="accent" id="none"><g display="none" fill="#ffffff" data-fill-palette-color="accent"><path display="inline" d="M30 10.367V4c0-1.105-0.895-2-2-2H4C2.895 2 2 2.895 2 4v24c0 1.104 0.895 2 2 2h24c1.105 0 2-0.896 2-2v-6.367c-2.324-0.828-4-3.025-4-5.633C26 13.391 27.676 11.193 30 10.367zM20 10v2 8c0 1.104-1.344 2-3 2-1.656 0-3-0.896-3-2 0-1.105 1.344-2 3-2 0.352 0 0.686 0.047 1 0.123V12.4L12 13.6V22c0 1.104-1.344 2-3 2-1.656 0-3-0.896-3-2 0-1.105 1.344-2 3-2 0.352 0 0.686 0.047 1 0.123V14v-2-2l10-2V10z" fill="#ffffff" data-fill-palette-color="accent"></path></g><g fill="#ffffff" data-fill-palette-color="accent"><path fill-rule="evenodd" clip-rule="evenodd" d="M21.906 13c0-4.418-4.883-8-10.906-8C4.977 5 0.094 8.582 0.094 13c0 2.271 1.297 4.317 3.369 5.774L1.906 25l5.822-4.367C8.762 20.871 9.859 21 11 21 17.023 21 21.906 17.418 21.906 13zM31.906 17c0-4.167-4.383-7.587-9.976-7.963 1.246 1.424 1.976 3.128 1.976 4.963 0 4.579-4.527 8.352-10.383 8.918C15.477 24.207 18.061 25 20.906 25c0.879 0 1.73-0.083 2.551-0.225L27.906 27l-0.842-3.37C29.984 22.191 31.906 19.759 31.906 17z" fill="#ffffff" data-fill-palette-color="accent"></path></g></svg></g></g></svg></g><defs></defs></svg><rect width="395.52" height="247.2" fill="none" stroke="none" visibility="hidden"></rect></g></svg></g></svg>